<?xml version="1.0" standalone="no"?>
<!DOCTYPE svg PUBLIC "-//W3C//DTD SVG 20010904//EN"
 "http://www.w3.org/TR/2001/REC-SVG-20010904/DTD/svg10.dtd">
<svg version="1.0" xmlns="http://www.w3.org/2000/svg"
 width="8000.000000pt" height="8000.000000pt" viewBox="0 0 8000.000000 8000.000000"
 preserveAspectRatio="xMidYMid meet">

<g transform="translate(0.000000,8000.000000) scale(0.100000,-0.100000)"
fill="#000000" stroke="none">
<path d="M40055 69795 c-363 -29 -901 -72 -1195 -94 -294 -23 -539 -43 -545
-45 -6 -2 -9 -29 -7 -62 l4 -59 281 0 c303 0 360 -7 518 -60 223 -76 345 -226
429 -526 35 -128 48 -261 127 -1259 74 -955 76 -982 77 -1330 1 -463 -26 -709
-108 -992 -123 -424 -395 -709 -800 -838 -176 -55 -314 -74 -546 -75 -283 0
-404 27 -646 145 -100 49 -135 72 -202 135 -221 207 -368 514 -451 938 -36
180 -72 445 -100 722 -28 276 -243 2996 -237 3002 1 1 164 14 361 29 198 15
364 30 368 34 4 4 5 33 1 65 l-7 58 -106 -7 c-58 -4 -412 -31 -786 -61 -374
-30 -845 -66 -1047 -82 l-368 -27 0 -59 c0 -43 4 -59 16 -64 8 -3 153 6 322
19 169 14 310 22 313 19 4 -3 34 -370 68 -816 162 -2115 173 -2229 267 -2615
133 -544 383 -1000 681 -1242 273 -222 613 -351 1027 -389 181 -17 561 -6 734
20 406 62 732 209 952 431 104 104 181 217 260 382 153 321 197 554 207 1103
7 416 -2 600 -80 1575 -51 644 -61 815 -62 1010 0 212 2 244 23 325 76 301
252 459 613 550 109 28 338 65 401 65 20 0 39 4 42 8 3 5 2 34 -1 65 l-6 57
-66 -1 c-36 -1 -363 -25 -726 -54z"/>
<path d="M43435 69558 c-6 -21 -24 -113 -21 -115 1 -1 143 -28 316 -59 173
-31 316 -58 318 -59 4 -3 -143 -816 -423 -2350 -94 -517 -192 -1055 -330
-1820 -141 -780 -126 -711 -155 -707 -14 2 -146 25 -295 52 -148 28 -281 51
-295 52 -23 3 -26 -2 -37 -57 -6 -33 -11 -61 -9 -62 8 -9 4072 -741 4078 -735
3 4 56 225 117 492 60 267 155 681 209 920 55 239 103 449 106 467 7 31 7 31
-44 42 -90 19 -80 34 -144 -206 -177 -659 -301 -915 -533 -1103 -106 -85 -175
-126 -283 -167 -132 -49 -208 -63 -376 -70 -267 -10 -583 28 -1284 153 -140
25 -258 49 -262 53 -5 4 14 128 41 276 61 333 171 938 301 1655 159 877 276
1520 345 1895 35 193 92 505 126 695 34 190 64 348 68 352 3 4 186 -26 406
-67 220 -40 403 -71 407 -67 7 8 23 122 16 122 -2 0 -215 38 -474 86 -258 47
-705 128 -994 180 -492 89 -815 148 -868 160 -13 2 -24 -1 -27 -8z"/>
<path d="M31965 68654 c-132 -47 -359 -127 -505 -179 -146 -51 -420 -148 -610
-215 -190 -67 -491 -174 -670 -237 -179 -63 -444 -157 -590 -208 -146 -51
-445 -157 -665 -235 -220 -78 -467 -165 -548 -193 -166 -58 -160 -51 -123
-139 l16 -37 97 35 c185 68 495 174 507 174 6 0 50 -111 98 -248 47 -136 140
-400 206 -587 66 -187 173 -488 237 -670 115 -326 269 -761 450 -1275 51 -146
157 -445 235 -665 78 -220 186 -526 240 -680 54 -154 119 -338 144 -408 25
-71 46 -130 46 -133 0 -7 -55 -27 -330 -123 -146 -51 -269 -96 -273 -100 -11
-11 33 -123 46 -118 7 2 109 38 227 80 118 42 395 140 615 217 220 78 481 170
580 205 99 35 308 109 464 164 156 55 285 102 288 104 3 4 -34 107 -42 115 -3
4 -180 -57 -489 -168 -109 -39 -202 -68 -206 -63 -4 4 -41 105 -83 223 -42
118 -113 319 -158 445 -44 127 -123 349 -174 495 -153 436 -320 908 -359 1015
-20 55 -36 105 -36 111 0 13 448 176 615 223 328 94 598 94 774 1 155 -83 307
-286 410 -546 24 -60 47 -113 51 -118 9 -9 140 34 140 45 0 4 -23 72 -51 151
-82 230 -272 770 -379 1073 -224 637 -299 847 -303 851 -5 5 -117 -35 -130
-46 -4 -4 8 -63 27 -131 54 -189 69 -293 63 -439 -7 -186 -52 -296 -171 -414
-114 -115 -286 -216 -534 -316 -150 -60 -554 -200 -562 -195 -4 3 -11 17 -15
32 -3 16 -44 134 -90 263 -46 129 -147 415 -225 635 -77 220 -170 481 -205
580 -175 493 -256 728 -251 732 16 17 1016 359 1219 418 602 173 915 134 1203
-150 107 -105 159 -183 255 -377 66 -136 193 -444 220 -536 7 -24 17 -41 23
-40 56 16 126 43 126 49 0 3 -21 65 -46 135 -44 124 -142 399 -394 1114 -143
406 -137 390 -152 390 -7 -1 -121 -39 -253 -86z"/>
<path d="M53531 66507 c-18 -30 -26 -56 -21 -61 5 -5 127 -80 272 -166 170
-102 263 -163 262 -173 -1 -8 -169 -296 -374 -639 -206 -342 -460 -767 -565
-943 -456 -763 -1194 -1996 -1378 -2305 -110 -184 -205 -341 -212 -348 -9 -10
-66 20 -286 152 -160 96 -278 161 -284 156 -14 -12 -60 -98 -55 -103 3 -3 248
-150 545 -328 297 -177 742 -444 989 -591 334 -200 451 -266 457 -256 5 7 20
32 34 55 l25 41 -122 75 c-68 41 -208 125 -313 187 -104 62 -192 114 -194 116
-2 2 16 36 39 76 135 229 1026 1717 1041 1739 l19 27 317 -191 c499 -298 706
-404 1008 -517 306 -113 539 -155 820 -147 186 6 258 17 391 62 347 116 655
410 850 810 98 201 136 353 136 540 0 189 -43 345 -140 511 -142 243 -465 561
-834 821 -180 127 -274 186 -673 425 -198 118 -657 393 -1020 610 -363 217
-670 400 -682 406 -20 11 -24 8 -52 -41z m1554 -1007 c261 -156 392 -242 515
-340 387 -309 539 -606 487 -953 -40 -265 -190 -586 -416 -887 -197 -263 -410
-431 -641 -505 -70 -23 -109 -28 -220 -32 -312 -11 -529 67 -1058 380 -191
114 -271 166 -269 177 2 8 174 299 381 645 208 347 515 860 684 1142 291 487
307 512 327 499 11 -7 106 -63 210 -126z"/>
<path d="M25345 66059 c-16 -11 -35 -23 -42 -27 -10 -6 -9 -19 3 -57 47 -157
-8 -285 -155 -360 -28 -13 -209 -77 -403 -141 -194 -64 -409 -139 -478 -166
-174 -69 -382 -178 -535 -279 -446 -297 -711 -651 -801 -1069 -25 -115 -25
-343 -1 -458 75 -354 287 -703 544 -896 251 -188 591 -277 1013 -263 229 7
384 34 1080 182 467 100 536 109 805 109 250 0 360 -14 500 -65 269 -98 512
-379 598 -694 75 -274 2 -623 -182 -866 -221 -291 -697 -571 -1116 -656 -137
-27 -444 -25 -582 5 -274 59 -543 195 -813 409 -52 42 -170 152 -262 244 -92
93 -170 169 -173 169 -3 0 -30 -16 -60 -36 l-55 -37 34 -46 c32 -44 79 -110
529 -751 468 -665 560 -795 567 -803 8 -9 90 39 90 52 0 3 -7 28 -15 55 -48
158 25 292 199 365 40 16 196 67 347 111 447 132 698 241 969 422 507 336 826
767 947 1278 33 142 43 393 20 525 -25 140 -63 260 -123 385 -269 561 -713
807 -1424 787 -239 -6 -342 -24 -1135 -192 -165 -35 -350 -71 -410 -79 -352
-49 -713 -20 -911 73 -192 90 -343 247 -444 464 -144 306 -96 646 129 929 204
258 615 491 975 553 115 20 330 19 437 -1 377 -69 741 -272 1078 -600 l117
-112 57 35 c38 23 56 40 53 49 -6 16 -63 106 -528 834 -420 659 -408 640 -411
639 -1 0 -15 -9 -32 -20z"/>
<path d="M59622 62418 l-42 -43 230 -230 230 -230 -177 -176 c-2051 -2023
-2708 -2672 -3001 -2963 l-352 -351 -229 229 -230 230 -43 -39 c-24 -22 -43
-43 -43 -47 0 -4 283 -295 630 -645 346 -351 990 -1003 1430 -1448 440 -446
852 -863 914 -928 63 -64 118 -117 122 -117 4 0 106 89 226 198 120 108 447
403 726 655 279 252 507 461 507 465 0 14 -88 94 -98 91 -6 -2 -61 -48 -124
-101 -288 -245 -535 -429 -685 -510 -92 -50 -226 -98 -328 -119 -77 -15 -273
-15 -350 0 -372 75 -675 306 -1473 1121 l-300 307 566 559 c312 308 716 708
899 888 l332 328 216 -221 c245 -249 318 -333 414 -476 100 -150 160 -311 161
-433 1 -187 -119 -423 -334 -657 -42 -46 -76 -87 -76 -92 0 -5 23 -31 50 -58
l50 -50 378 375 c207 206 560 557 784 780 l408 405 -52 52 -51 51 -96 -85
c-53 -46 -139 -113 -192 -149 -283 -189 -480 -207 -754 -66 -150 78 -271 177
-552 455 l-262 260 497 491 c273 270 640 632 815 806 175 173 321 316 326 318
11 4 731 -735 847 -868 264 -304 410 -530 486 -753 29 -83 32 -104 32 -207 0
-98 -5 -127 -28 -200 -79 -238 -250 -488 -538 -786 l-88 -90 50 -53 51 -52
594 588 595 588 -273 275 c-492 497 -1130 1142 -1941 1963 -439 444 -801 807
-805 807 -3 0 -25 -19 -49 -42z"/>
<path d="M19997 62232 c-23 -24 -34 -42 -28 -47 21 -22 60 -113 66 -156 9 -60
-8 -122 -52 -187 -43 -64 -126 -121 -448 -308 -452 -263 -670 -424 -890 -657
-273 -289 -440 -583 -510 -898 -26 -115 -31 -364 -11 -474 85 -454 442 -892
863 -1059 166 -66 251 -80 478 -80 224 1 317 13 531 69 72 19 182 54 245 79
131 51 546 232 770 337 464 216 691 287 1013 319 287 29 529 -57 745 -264 193
-185 295 -387 320 -636 37 -356 -106 -682 -440 -1005 -677 -655 -1453 -706
-2324 -152 -66 41 -145 94 -175 117 l-54 40 -51 -50 -50 -51 95 -88 c52 -49
379 -348 725 -664 l630 -576 37 37 37 37 -34 69 c-54 106 -47 198 21 298 36
52 131 114 424 278 300 168 351 200 530 333 148 111 363 318 474 457 260 325
416 668 471 1038 19 127 19 365 0 478 -52 300 -197 568 -431 794 -148 143
-265 220 -430 284 -147 57 -265 76 -463 76 -261 0 -463 -35 -721 -125 -117
-41 -541 -225 -869 -376 -361 -168 -555 -236 -795 -279 -229 -42 -417 -37
-576 15 -262 87 -506 340 -592 615 -20 66 -23 94 -22 235 0 145 3 168 28 249
60 199 180 380 369 562 411 394 853 526 1387 413 244 -52 559 -186 793 -338
l99 -64 51 51 52 52 -620 620 c-341 341 -622 620 -625 620 -3 0 -23 -17 -43
-38z"/>
<path d="M30633 57299 c-95 -18 -198 -80 -325 -195 -119 -109 -220 -229 -357
-428 -125 -182 -210 -281 -302 -352 -64 -49 -187 -115 -258 -139 -66 -21 -209
-43 -336 -50 -223 -13 -438 -89 -749 -264 -17 -10 -58 -33 -91 -51 -53 -30
-116 -71 -345 -228 -36 -24 -119 -88 -184 -141 -66 -53 -143 -115 -172 -138
-56 -45 -269 -242 -399 -369 -107 -104 -365 -391 -437 -484 -32 -41 -93 -120
-135 -176 -43 -55 -121 -157 -173 -225 -105 -139 -331 -371 -430 -443 -162
-119 -274 -167 -432 -186 -126 -14 -225 -47 -326 -106 -382 -226 -745 -799
-876 -1387 -38 -166 -44 -218 -60 -508 -29 -491 -90 -705 -201 -702 -86 2
-148 76 -171 203 -27 151 -35 162 -101 142 -40 -13 -153 -98 -201 -154 -178
-203 -371 -795 -506 -1548 -36 -199 -56 -332 -66 -440 -6 -63 -15 -149 -21
-190 -14 -109 -28 -410 -29 -598 0 -181 9 -285 45 -507 53 -332 57 -460 18
-513 -31 -43 -79 -62 -158 -62 -71 0 -256 25 -465 62 -255 45 -419 57 -481 37
-150 -50 -180 -193 -144 -684 52 -715 143 -1330 266 -1785 104 -385 136 -467
257 -660 120 -190 209 -401 197 -466 -8 -48 -54 -83 -131 -104 -84 -22 -213
-29 -584 -35 -302 -4 -366 -12 -441 -52 -103 -55 -116 -149 -58 -443 24 -123
55 -233 112 -400 73 -216 91 -264 175 -465 78 -184 108 -250 282 -610 95 -196
150 -349 150 -415 0 -83 -31 -89 -176 -31 -55 21 -178 69 -274 105 -96 37
-202 78 -235 91 -33 13 -114 42 -180 64 -66 22 -140 47 -165 57 -25 9 -58 20
-75 24 -16 5 -55 18 -85 29 -30 11 -113 34 -185 51 -71 17 -164 39 -205 49
-193 48 -423 54 -527 14 -116 -46 -175 -125 -191 -256 -24 -187 58 -476 286
-1012 16 -38 48 -115 71 -170 142 -338 160 -380 217 -503 19 -41 34 -75 34
-77 0 -2 18 -43 41 -92 22 -48 79 -173 126 -278 47 -104 107 -237 134 -293 27
-57 49 -106 49 -108 0 -2 44 -95 99 -206 54 -112 115 -237 134 -278 179 -382
598 -1233 799 -1625 176 -340 199 -386 223 -425 12 -19 43 -75 69 -125 161
-302 268 -481 381 -643 52 -74 56 -104 25 -204 -42 -136 -116 -249 -399 -604
-170 -215 -205 -314 -162 -464 23 -80 43 -122 189 -380 152 -269 175 -324 170
-406 -3 -51 -10 -72 -35 -106 -17 -24 -40 -48 -53 -54 -12 -7 -36 -26 -54 -43
-17 -17 -36 -31 -40 -31 -4 0 -25 -13 -46 -30 -21 -16 -43 -30 -49 -30 -6 0
-11 -3 -11 -7 0 -5 -25 -26 -56 -48 -121 -86 -294 -321 -294 -398 0 -14 -6
-27 -12 -29 -18 -6 -17 -199 1 -258 61 -199 174 -395 320 -555 295 -321 608
-581 1131 -936 91 -62 176 -121 190 -131 52 -39 126 -88 145 -97 11 -5 64 -39
118 -75 54 -36 101 -66 106 -66 4 0 16 -7 26 -15 18 -14 127 -85 167 -110 9
-5 50 -30 89 -54 40 -24 82 -49 93 -55 12 -6 40 -24 63 -39 24 -15 46 -27 49
-27 4 0 39 -20 78 -44 39 -23 78 -46 86 -50 8 -3 29 -15 45 -26 17 -11 39 -24
50 -30 11 -6 34 -19 50 -29 17 -11 38 -20 48 -20 9 -1 115 -50 235 -110 119
-59 271 -134 337 -167 288 -140 372 -243 320 -395 -25 -74 -139 -297 -152
-298 -7 -1 -13 -14 -13 -29 0 -16 -7 -37 -15 -48 -8 -10 -15 -38 -15 -60 0
-23 -8 -59 -17 -80 -15 -34 -18 -73 -17 -289 0 -172 3 -257 12 -271 6 -12 16
-46 21 -75 5 -30 17 -79 26 -109 9 -30 19 -66 22 -80 3 -14 18 -53 34 -88 16
-34 29 -65 29 -70 0 -4 20 -31 45 -59 50 -57 133 -103 187 -103 47 0 171 32
181 47 4 7 14 13 22 13 8 0 65 14 127 31 217 60 419 102 693 144 127 19 268
42 315 50 47 8 144 21 215 29 72 9 168 20 214 26 133 16 230 13 238 -6 8 -20
-15 -38 -117 -93 -75 -41 -99 -54 -312 -172 -202 -112 -396 -249 -593 -420
-159 -138 -266 -260 -386 -438 -39 -57 -81 -118 -94 -135 -29 -38 -85 -150
-85 -169 0 -8 -6 -20 -14 -26 -8 -7 -14 -20 -13 -30 0 -10 -5 -38 -12 -62 -7
-24 -20 -64 -27 -89 -21 -69 -20 -328 1 -369 9 -17 14 -35 11 -40 -3 -4 2 -20
10 -35 7 -16 14 -33 14 -40 0 -22 99 -162 154 -219 65 -66 160 -134 226 -162
25 -10 52 -25 61 -32 8 -7 22 -13 31 -13 8 0 44 -13 80 -29 35 -16 81 -32 101
-36 20 -4 40 -11 43 -16 3 -5 15 -9 28 -9 12 0 31 -7 42 -15 10 -8 31 -15 46
-15 15 0 30 -5 33 -10 4 -6 15 -8 25 -5 10 3 76 -10 147 -30 70 -19 153 -41
183 -49 73 -19 466 -101 555 -115 39 -7 151 -25 250 -41 99 -16 230 -34 290
-39 61 -6 175 -17 255 -26 269 -29 694 -22 885 15 181 35 398 70 433 70 24 0
47 -7 56 -16 19 -19 19 -19 4 -47 -25 -48 -88 -114 -286 -299 -439 -410 -576
-565 -663 -753 -84 -180 -80 -360 13 -523 65 -114 202 -264 343 -374 197 -155
398 -291 513 -347 135 -67 387 -161 497 -186 39 -9 115 -27 170 -40 291 -70
650 -100 1106 -91 423 8 688 32 984 91 66 13 161 31 210 40 308 58 871 225
1080 320 17 8 65 28 107 44 113 44 407 193 528 268 193 118 236 147 381 264
139 112 201 174 396 399 162 186 278 287 373 324 34 14 72 18 157 17 62 -1
123 -5 136 -10 13 -5 55 -17 93 -26 38 -10 112 -33 164 -52 117 -42 374 -141
415 -159 17 -7 89 -36 160 -64 72 -28 139 -55 150 -60 11 -5 119 -48 240 -95
202 -79 474 -193 603 -252 28 -13 52 -29 52 -36 0 -7 -26 -27 -58 -46 -309
-183 -376 -222 -507 -291 -66 -34 -133 -70 -150 -80 -16 -10 -75 -41 -130 -70
-55 -29 -113 -60 -130 -70 -16 -9 -75 -41 -130 -70 -412 -218 -798 -439 -1045
-598 -134 -86 -406 -289 -520 -389 -383 -335 -528 -587 -500 -864 18 -182 130
-298 329 -343 138 -30 398 -17 606 31 260 60 546 146 710 213 39 16 156 63
260 104 250 98 272 108 615 274 319 153 336 162 775 395 232 123 331 177 815
442 239 132 509 277 600 323 l165 84 324 -181 c178 -99 329 -181 336 -181 7 0
158 81 336 181 l324 181 124 -63 c69 -35 186 -96 260 -137 75 -41 192 -104
261 -142 69 -37 238 -130 375 -205 138 -76 288 -158 335 -182 47 -25 90 -48
95 -53 6 -4 93 -50 195 -103 102 -53 223 -116 270 -142 84 -45 192 -99 470
-232 244 -117 291 -140 395 -183 55 -23 109 -45 120 -50 11 -5 74 -29 140 -55
66 -25 152 -59 190 -75 165 -68 473 -160 730 -218 189 -43 455 -55 586 -26
198 44 313 166 329 348 26 282 -122 530 -525 881 -220 192 -657 484 -1020 682
-61 33 -180 98 -265 145 -85 47 -193 105 -240 130 -47 25 -173 93 -280 150
-107 58 -240 129 -295 158 -115 62 -162 89 -487 281 -34 20 -57 40 -55 49 3
17 239 121 607 266 146 58 274 109 285 114 11 5 79 32 150 60 72 28 139 55
150 60 31 15 265 106 315 123 25 9 70 26 100 37 30 12 104 35 164 51 60 16
112 32 116 34 5 3 59 5 121 6 87 1 125 -3 159 -17 95 -37 205 -132 363 -314
198 -227 267 -297 409 -411 340 -272 740 -484 1243 -660 279 -98 615 -190 850
-234 50 -9 144 -27 210 -40 296 -59 561 -83 984 -91 365 -7 568 3 836 42 211
30 480 93 610 141 325 119 407 163 675 357 341 248 501 427 566 636 21 69 18
205 -7 286 -67 218 -193 370 -701 850 -204 194 -298 296 -298 325 0 20 35 39
72 39 35 0 252 -35 433 -70 191 -37 616 -44 885 -15 80 9 195 20 255 26 61 5
178 21 260 35 83 14 177 29 210 34 114 17 141 22 355 66 230 48 257 55 452
110 71 19 137 33 147 29 11 -3 22 -1 26 5 3 5 18 10 33 10 15 0 36 7 46 15 11
8 30 15 42 15 13 0 25 4 28 9 3 5 22 12 42 16 38 7 131 44 240 96 33 16 63 29
67 29 18 0 119 78 185 143 103 102 151 183 196 338 21 70 21 305 0 371 -7 24
-21 70 -30 103 -9 33 -23 74 -29 90 -7 17 -18 44 -25 60 -7 17 -16 37 -21 45
-5 8 -13 24 -18 36 -5 11 -20 33 -33 50 -14 16 -46 63 -73 104 -97 152 -263
340 -415 471 -221 191 -399 312 -720 486 -283 154 -296 162 -287 187 8 19 105
22 238 6 46 -6 143 -17 214 -26 72 -8 168 -21 215 -29 47 -8 189 -31 315 -50
127 -20 271 -44 320 -55 243 -53 514 -123 523 -136 9 -12 139 -44 180 -44 50
0 137 46 180 95 50 57 142 271 142 331 0 8 4 22 9 32 49 94 67 567 27 682 -9
25 -16 63 -16 85 0 22 -7 49 -15 59 -8 11 -15 30 -15 42 0 13 -6 27 -12 31 -7
4 -46 73 -86 153 -111 221 -109 284 12 398 56 52 102 78 430 240 201 100 370
182 375 182 13 0 72 28 106 50 17 11 39 24 50 30 11 5 27 14 35 19 79 49 168
101 174 101 3 0 25 12 49 27 23 15 51 33 63 39 11 6 53 31 93 55 39 24 80 49
89 54 43 26 148 96 159 105 7 6 21 14 30 18 10 4 63 36 118 72 55 36 108 70
117 75 9 6 34 22 55 37 95 66 267 184 289 198 105 68 546 392 634 466 154 131
289 256 384 357 147 158 176 192 251 307 76 116 107 178 146 294 25 75 30 106
31 191 1 80 -3 108 -16 126 -9 13 -16 34 -16 47 0 69 -167 291 -285 378 -27
20 -51 41 -53 46 -2 4 -8 8 -14 8 -6 0 -27 14 -48 30 -21 17 -42 30 -46 30 -4
0 -23 14 -40 31 -18 17 -43 37 -56 43 -13 6 -38 33 -55 60 -60 89 -43 184 68
381 31 55 85 152 121 215 113 200 158 312 158 395 0 91 -77 235 -210 395 -277
334 -400 550 -388 678 4 39 15 63 59 123 30 41 77 110 105 154 124 196 622
1134 834 1570 37 77 147 301 244 499 97 197 176 360 176 361 0 5 115 245 200
420 88 179 123 254 235 500 42 94 90 198 106 233 16 35 29 65 29 67 0 2 21 48
46 102 82 175 223 498 300 686 24 59 53 126 63 150 96 210 216 532 268 717 32
114 35 137 37 265 1 124 -1 145 -21 187 -29 64 -93 123 -161 149 -104 40 -340
37 -512 -7 -30 -7 -122 -30 -205 -49 -82 -20 -208 -56 -280 -81 -71 -25 -184
-63 -250 -85 -111 -37 -319 -114 -390 -144 -16 -7 -73 -29 -125 -49 -52 -19
-135 -51 -184 -71 -113 -44 -150 -46 -164 -6 -18 52 28 209 116 391 27 58 91
191 142 295 148 305 308 705 379 945 12 41 26 86 31 100 15 41 49 191 60 260
25 162 27 188 20 243 -10 69 -27 98 -80 133 -69 46 -131 54 -445 59 -378 6
-505 13 -589 35 -78 21 -123 56 -132 106 -12 66 67 249 206 478 117 193 152
286 261 691 26 99 131 628 148 750 7 50 17 122 22 160 4 39 15 122 23 185 29
223 62 610 72 867 15 351 -49 474 -245 473 -74 -1 -235 -21 -456 -59 -438 -74
-515 -70 -568 30 -16 29 -18 50 -13 154 3 66 12 163 21 215 32 201 36 229 50
350 22 190 15 646 -14 870 -6 41 -15 127 -21 190 -17 176 -82 563 -136 805
-20 88 -42 187 -49 220 -24 105 -142 491 -181 587 -48 122 -114 254 -160 324
-65 98 -223 224 -280 224 -34 0 -45 -23 -65 -132 -14 -76 -25 -112 -46 -142
-54 -76 -139 -102 -187 -57 -71 66 -121 293 -137 616 -21 434 -69 678 -195
983 -194 469 -491 845 -790 999 -98 50 -161 69 -289 84 -108 13 -195 41 -284
91 -193 109 -410 320 -626 608 -242 321 -521 654 -664 789 -341 325 -345 328
-555 499 -133 109 -448 331 -551 390 -196 111 -288 160 -376 198 -202 87 -330
119 -533 134 -180 12 -283 37 -395 92 -171 85 -279 191 -449 438 -132 194
-245 328 -368 440 -122 111 -225 171 -322 189 -54 11 -191 -3 -234 -23 -18 -8
-49 -21 -69 -29 -142 -57 -324 -270 -370 -432 -4 -16 -15 -55 -24 -85 -9 -30
-20 -126 -25 -213 -14 -219 -33 -256 -125 -242 -62 9 -175 70 -476 258 -385
239 -541 313 -779 370 -296 70 -721 62 -1445 -28 -66 -8 -165 -19 -220 -25
-95 -10 -181 -22 -395 -55 -173 -27 -391 -69 -470 -92 -111 -31 -156 -110
-154 -273 2 -148 32 -248 143 -467 175 -348 535 -780 916 -1101 61 -51 232
-190 380 -309 322 -260 493 -423 531 -509 14 -33 23 -67 20 -79 -12 -46 -116
-125 -166 -125 -11 0 -120 27 -243 59 -220 59 -1191 319 -1692 453 -143 38
-343 91 -445 118 -102 26 -311 82 -465 124 -555 148 -954 255 -1160 310 -214
56 -525 139 -1015 271 -151 41 -309 83 -350 93 -41 11 -296 79 -565 151 l-490
131 -470 -126 c-259 -69 -522 -139 -585 -155 -63 -17 -221 -59 -350 -94 -129
-35 -449 -120 -710 -190 -721 -192 -1347 -359 -1630 -435 -140 -38 -435 -117
-655 -175 -220 -59 -761 -203 -1203 -321 -441 -118 -812 -214 -823 -214 -50 0
-153 78 -165 125 -4 15 3 44 19 78 41 89 191 234 496 480 529 425 724 605 945
872 428 518 617 978 498 1211 -39 77 -73 93 -282 133 -150 30 -203 39 -310 56
-214 33 -300 45 -395 55 -55 6 -154 17 -220 25 -578 72 -983 91 -1255 60 -212
-24 -401 -81 -590 -178 -109 -56 -130 -68 -400 -237 -287 -179 -390 -235 -457
-246 -89 -14 -111 29 -124 240 -9 150 -14 185 -43 281 -21 75 -31 96 -76 171
-107 175 -296 312 -455 329 -27 4 -63 8 -80 9 -16 2 -49 0 -72 -5z m252 -367
c106 -53 223 -242 233 -373 14 -194 -132 -509 -353 -759 -248 -280 -458 -456
-561 -468 -54 -6 -96 17 -120 65 -27 54 -31 273 -9 432 59 426 199 769 398
974 108 112 208 160 312 154 34 -3 78 -13 100 -25z m18489 9 c243 -85 475
-459 566 -911 37 -185 52 -324 48 -462 -3 -152 -17 -194 -72 -223 -48 -26 -98
-16 -186 38 -121 74 -307 252 -491 470 -187 222 -318 522 -307 703 6 93 66
222 140 300 95 101 185 126 302 85z m-15289 -476 c205 -25 517 -96 670 -153
181 -66 255 -112 255 -159 0 -79 -154 -288 -362 -489 -81 -79 -372 -340 -512
-459 -136 -116 -649 -518 -745 -584 -440 -303 -961 -467 -1657 -521 -642 -51
-822 -50 -832 1 -6 34 235 204 603 425 371 223 476 285 556 328 47 25 155 84
240 131 254 141 770 397 989 490 276 118 397 176 445 214 42 34 85 95 85 122
0 20 -37 54 -70 64 -56 17 -213 3 -325 -29 -27 -8 -90 -25 -140 -39 -124 -33
-418 -143 -580 -217 -35 -16 -93 -41 -127 -56 -66 -28 -516 -250 -533 -264 -5
-4 -75 -44 -155 -88 -80 -44 -180 -102 -222 -128 -127 -80 -497 -314 -583
-369 -138 -88 -339 -194 -447 -234 -140 -52 -163 -57 -195 -36 -22 15 -25 22
-20 57 8 58 58 134 193 292 104 122 333 350 459 457 22 19 95 82 162 141 107
94 420 334 553 424 110 75 437 266 555 325 618 306 1188 422 1740 354z m12455
4 c125 -12 238 -32 380 -66 99 -23 301 -84 345 -103 11 -5 43 -16 70 -26 77
-27 289 -121 400 -177 106 -54 442 -254 535 -318 556 -384 1224 -1008 1338
-1251 28 -60 28 -82 0 -108 -18 -17 -30 -20 -58 -15 -120 23 -408 163 -636
311 -61 39 -146 94 -190 121 -43 27 -149 94 -234 148 -428 273 -1017 567
-1475 738 -93 35 -192 69 -220 76 -51 12 -124 32 -205 57 -64 19 -217 32 -269
22 -50 -9 -91 -41 -91 -72 0 -11 11 -36 25 -57 50 -71 123 -111 505 -274 184
-79 665 -314 875 -428 505 -274 915 -516 1257 -740 182 -120 263 -186 256
-209 -16 -48 -203 -48 -832 2 -196 15 -485 54 -591 80 -22 5 -71 17 -110 26
-215 50 -422 123 -617 218 -207 101 -328 179 -553 356 -77 61 -198 157 -270
213 -260 204 -708 599 -856 754 -171 181 -279 336 -279 403 0 16 11 37 28 52
61 59 338 159 557 202 39 7 115 23 170 34 231 47 486 58 745 31z m-17156 -664
c34 -17 72 -47 92 -70 100 -123 155 -380 105 -491 -23 -50 -75 -95 -138 -117
-27 -9 -110 -22 -187 -28 -167 -13 -246 -35 -400 -115 -100 -51 -239 -138
-326 -204 -19 -15 -80 -60 -135 -100 -430 -317 -1018 -948 -1177 -1264 -56
-111 -77 -180 -89 -298 -6 -62 -20 -138 -31 -168 -63 -179 -220 -169 -342 22
-20 31 -36 59 -36 62 0 3 -11 29 -25 58 -129 280 -29 626 312 1078 189 251
513 577 863 871 102 85 203 168 225 184 22 17 92 70 155 119 279 216 634 418
825 471 124 34 226 31 309 -10z m21586 10 c57 -15 151 -52 236 -94 139 -68
402 -230 519 -321 33 -25 107 -82 165 -125 161 -121 464 -380 645 -552 422
-399 716 -792 818 -1093 80 -234 77 -375 -13 -567 -86 -183 -192 -268 -292
-233 -70 24 -108 110 -128 290 -6 58 -21 132 -32 165 -68 205 -294 510 -642
865 -446 456 -933 816 -1237 914 -52 17 -118 28 -215 35 -152 12 -216 30 -269
74 -55 45 -75 93 -75 182 0 167 78 359 172 426 86 62 200 73 348 34z m-10391
-1151 c665 -178 920 -246 1071 -285 63 -17 322 -86 575 -154 253 -68 573 -153
710 -190 267 -71 632 -168 1180 -315 187 -51 448 -120 580 -155 132 -35 461
-122 730 -195 270 -72 668 -178 885 -236 217 -58 724 -193 1125 -300 402 -107
840 -224 975 -260 135 -36 326 -88 425 -114 99 -27 419 -112 710 -190 899
-240 1685 -450 1795 -480 58 -16 168 -45 245 -65 77 -20 383 -102 680 -181
297 -80 635 -170 750 -201 116 -30 298 -79 405 -108 107 -29 279 -74 383 -101
120 -31 186 -53 185 -61 -2 -6 -156 -209 -343 -449 -536 -690 -642 -837 -842
-1169 -708 -1176 -999 -2267 -786 -2950 187 -600 864 -996 2003 -1169 349 -53
592 -73 1285 -107 248 -11 453 -24 456 -28 6 -6 -19 -555 -41 -881 -52 -796
-260 -1994 -531 -3060 -1069 -4192 -3271 -8207 -6353 -11580 -582 -637 -1359
-1414 -1906 -1904 -129 -116 -271 -245 -315 -286 -240 -226 -847 -738 -1351
-1141 -514 -410 -904 -703 -1599 -1199 -795 -568 -2056 -1363 -3020 -1905
-414 -233 -616 -345 -620 -345 -6 0 -696 387 -910 510 -824 476 -1683 1017
-2435 1535 -1063 731 -2199 1615 -3062 2381 -701 623 -1163 1061 -1748 1659
-2411 2464 -4360 5353 -5701 8453 -852 1968 -1461 4058 -1738 5962 -66 452
-93 727 -116 1180 -9 168 -20 375 -24 460 -5 85 -6 158 -2 161 3 4 247 19 541
33 525 26 832 50 1060 81 809 112 1367 308 1745 615 554 451 621 1215 203
2323 -178 473 -475 1039 -801 1527 -123 184 -174 252 -604 807 -206 265 -374
485 -373 490 1 4 115 38 253 75 512 135 906 240 1457 388 311 83 630 169 710
190 80 20 384 101 675 180 292 78 665 178 830 222 165 43 552 147 860 229 542
145 693 185 1345 359 168 45 454 121 635 170 182 49 427 114 545 145 118 31
262 69 320 85 58 16 436 117 840 225 404 108 1095 292 1535 410 440 118 1131
302 1535 410 404 108 800 214 880 235 80 21 258 69 395 106 138 36 448 119
690 184 242 65 446 119 454 119 8 1 260 -65 560 -145z m-10921 -18 c49 -26 57
-52 37 -122 -25 -89 -78 -195 -241 -480 -253 -444 -471 -771 -750 -1125 -150
-190 -367 -434 -434 -488 -33 -26 -91 -45 -436 -136 -220 -59 -420 -112 -447
-120 -26 -7 -50 -9 -53 -4 -10 17 9 166 33 259 199 751 1211 1971 1823 2197
105 39 121 42 295 39 110 -2 147 -6 173 -20z m21205 -20 c627 -249 1618 -1442
1817 -2186 26 -99 47 -260 35 -272 -3 -3 -27 0 -53 8 -26 7 -226 60 -446 119
-457 121 -411 99 -587 289 -338 365 -707 885 -1034 1460 -169 298 -217 391
-239 470 -20 69 -15 99 20 123 41 27 90 32 249 28 144 -3 153 -5 238 -39z
m-19583 -1036 c193 -11 405 -34 700 -75 96 -14 191 -25 210 -25 91 -1 49 -20
-172 -78 -128 -34 -467 -124 -753 -201 -286 -76 -639 -171 -785 -210 -428
-113 -1163 -311 -1184 -317 -29 -9 -16 8 44 61 30 26 123 113 205 193 150 145
325 296 421 364 82 58 292 165 379 193 109 35 365 85 488 94 152 12 243 12
447 1z m17918 0 c151 -12 365 -52 492 -92 103 -33 284 -124 395 -199 99 -67
216 -168 422 -364 98 -93 198 -187 221 -208 24 -21 42 -40 40 -42 -2 -2 -179
44 -393 101 -215 57 -543 145 -730 195 -187 50 -558 149 -825 221 -267 71
-605 161 -753 200 -253 68 -299 87 -205 88 20 0 112 11 205 24 504 73 859 97
1131 76z m-23519 -840 c131 -25 253 -117 367 -277 79 -112 179 -307 232 -454
45 -125 45 -127 25 -133 -70 -21 -546 -146 -548 -144 -2 2 -8 61 -14 132 -12
141 -31 199 -67 204 -46 7 -227 -223 -294 -373 -17 -38 -32 -71 -34 -72 -8 -8
-529 -143 -534 -139 -14 14 66 289 144 496 83 221 137 332 231 473 156 236
305 323 492 287z m28915 -23 c122 -56 275 -241 387 -467 67 -137 172 -415 210
-560 42 -159 52 -201 46 -206 -5 -5 -485 119 -524 136 -13 5 -23 15 -23 23 0
24 -80 169 -139 251 -69 95 -154 179 -178 174 -36 -7 -53 -61 -65 -202 -6 -75
-14 -136 -17 -136 -13 1 -553 149 -557 153 -3 2 11 51 31 108 82 240 240 507
364 620 69 62 171 118 236 130 74 14 168 4 229 -24z m-29562 -1537 l205 -265
7 -265 c9 -358 43 -848 76 -1110 5 -41 17 -131 25 -200 9 -69 20 -150 25 -180
5 -30 19 -111 30 -180 41 -245 63 -310 146 -425 70 -98 163 -175 212 -175 104
0 174 176 157 399 -7 96 -11 123 -39 281 -8 47 -22 130 -31 185 -9 55 -20 127
-25 160 -18 113 -55 520 -64 719 -5 103 -4 117 8 107 32 -27 516 -661 614
-804 l104 -152 -6 -55 c-12 -106 -44 -243 -115 -502 -66 -240 -294 -729 -454
-973 -103 -157 -122 -166 -180 -87 -78 106 -259 466 -377 747 -23 55 -53 125
-67 155 -51 113 -239 605 -326 855 -116 332 -211 666 -237 838 -29 191 -29
592 0 762 5 33 24 146 41 250 17 105 33 194 36 198 7 12 2 18 235 -283z
m30242 180 c8 -52 27 -167 41 -255 42 -259 48 -644 15 -849 -14 -82 -72 -327
-96 -401 -9 -27 -20 -63 -24 -80 -31 -112 -92 -289 -218 -640 -177 -494 -509
-1236 -642 -1437 -56 -86 -86 -104 -121 -72 -31 28 -140 197 -203 314 -165
306 -295 616 -359 855 -46 173 -45 169 -78 330 l-28 140 85 127 c47 69 132
187 187 261 193 255 452 586 459 587 11 0 -6 -283 -37 -612 -13 -143 -66 -501
-100 -673 -49 -253 -15 -496 79 -554 57 -36 86 -28 174 47 49 41 127 145 166
219 23 47 42 126 77 323 34 197 33 189 54 360 9 69 20 159 25 200 34 267 66
747 76 1116 l7 250 215 277 c119 153 219 274 223 270 4 -5 14 -51 23 -103z
m-31250 -1306 c67 -33 114 -80 186 -185 120 -175 258 -526 339 -864 12 -49 28
-112 36 -140 37 -129 126 -646 145 -847 6 -57 12 -112 15 -123 16 -77 38 -502
39 -760 0 -324 -11 -500 -50 -740 -24 -148 -32 -181 -81 -340 -42 -134 -43
-135 -118 -135 l-65 0 -26 52 c-42 83 -107 270 -143 413 -4 17 -18 62 -29 100
-40 127 -100 348 -132 480 -17 72 -47 195 -66 275 -93 385 -125 715 -89 921
18 103 39 171 100 314 80 188 96 292 53 332 -33 30 -61 36 -108 23 -60 -16
-112 -69 -154 -155 -66 -138 -96 -294 -117 -600 -19 -279 7 -701 67 -1085 63
-402 152 -742 273 -1054 6 -16 10 -31 8 -33 -3 -2 -59 -7 -126 -10 l-121 -6
-34 74 c-39 87 -116 318 -144 439 -31 128 -59 258 -72 330 -6 36 -16 88 -21
115 -10 51 -28 189 -54 415 -55 483 -66 1154 -26 1655 41 514 152 939 282
1080 81 87 144 104 233 59z m32154 7 c91 -47 172 -184 235 -396 35 -116 79
-328 91 -430 3 -27 12 -108 20 -180 32 -283 39 -421 38 -810 0 -463 -14 -704
-62 -1115 -53 -448 -168 -933 -277 -1169 l-34 -74 -121 6 c-66 3 -123 9 -126
11 -3 3 2 23 11 43 50 120 159 465 180 573 3 14 12 59 21 100 9 41 23 111 31
155 8 44 21 118 30 165 34 192 60 445 76 741 13 236 4 446 -27 664 -28 201
-96 380 -168 443 -40 35 -103 56 -140 46 -30 -7 -61 -41 -69 -74 -9 -37 21
-152 68 -264 97 -225 115 -300 122 -491 8 -210 -27 -458 -117 -830 -83 -344
-94 -385 -205 -770 -57 -198 -86 -286 -133 -395 l-37 -85 -67 -3 -67 -3 -19
38 c-11 21 -29 72 -41 113 -12 41 -28 98 -36 125 -23 76 -62 333 -77 495 -26
293 -14 820 28 1215 61 579 197 1205 342 1576 94 239 198 424 290 512 48 47
126 86 170 87 18 0 49 -9 70 -19z m-29083 -1976 c118 -292 201 -571 241 -810
23 -136 24 -394 1 -493 -27 -119 -79 -215 -159 -294 -39 -37 -77 -68 -84 -68
-10 0 -14 13 -14 41 0 35 -105 1375 -141 1806 -6 73 -8 141 -4 150 9 22 57
-77 160 -332z m25981 -257 c-26 -320 -60 -747 -77 -948 -16 -201 -29 -384 -29
-407 0 -23 -5 -45 -10 -48 -16 -10 -106 71 -154 139 -86 122 -112 242 -103
489 11 329 118 729 322 1202 26 61 54 125 62 144 37 86 35 13 -11 -571z
m-26974 -928 c61 -63 141 -226 204 -415 55 -166 105 -353 95 -359 -13 -9 -340
-76 -461 -95 -166 -27 -490 -64 -497 -57 -9 8 141 355 225 521 162 320 267
455 356 455 22 0 41 -12 78 -50z m27977 36 c72 -38 161 -167 293 -426 98 -192
244 -527 235 -536 -8 -9 -434 44 -587 72 -173 32 -363 74 -372 82 -13 13 94
369 155 519 75 182 164 303 223 303 14 0 37 -6 53 -14z m-31500 -447 c300
-105 544 -345 801 -783 135 -231 137 -236 144 -401 19 -405 57 -1102 62 -1117
9 -28 -13 -21 -29 10 -52 101 -197 392 -197 396 0 5 -108 229 -255 531 -89
181 -281 529 -361 652 -55 85 -142 183 -162 183 -26 0 -34 -40 -22 -113 16
-95 136 -453 216 -644 35 -84 64 -155 64 -158 0 -2 11 -29 25 -59 14 -30 25
-57 25 -60 0 -3 23 -54 51 -113 28 -59 61 -130 74 -158 12 -27 47 -102 78
-165 57 -120 118 -249 169 -360 17 -36 54 -114 82 -175 76 -160 208 -491 255
-637 100 -311 44 -375 -150 -172 -156 164 -394 475 -545 714 -77 122 -254 453
-254 475 0 3 -12 32 -26 63 -38 84 -124 289 -124 297 0 3 -22 66 -49 138 -27
73 -64 182 -81 242 -17 61 -40 137 -51 169 -42 129 -114 469 -148 696 -18 118
-29 340 -20 403 12 91 61 150 147 178 51 16 188 1 281 -32z m35170 31 c55 -15
109 -59 131 -106 24 -48 27 -129 15 -316 -14 -201 -104 -666 -170 -873 -14
-44 -37 -120 -51 -170 -40 -141 -153 -443 -222 -595 -19 -41 -41 -93 -49 -115
-27 -76 -193 -385 -275 -512 -171 -265 -444 -612 -579 -737 -63 -58 -101 -76
-128 -59 -29 19 -19 132 23 263 49 151 75 226 97 275 10 22 40 94 67 160 28
66 87 199 132 295 45 96 95 202 110 235 15 33 71 152 125 265 213 448 313 687
430 1030 66 194 71 212 85 298 10 56 0 102 -22 102 -19 0 -101 -91 -155 -171
-27 -41 -85 -137 -128 -214 -43 -77 -90 -160 -105 -185 -30 -52 -306 -610
-353 -715 -64 -144 -248 -505 -258 -505 -5 0 -7 10 -4 23 3 12 18 290 35 617
16 327 31 611 34 630 4 44 195 377 297 521 180 255 412 448 630 526 114 40
221 52 288 33z m-35355 -3546 c239 -72 451 -248 674 -559 213 -297 317 -421
443 -531 78 -68 158 -124 179 -124 8 0 38 -11 65 -24 54 -26 115 -85 191 -186
105 -140 107 -144 189 -465 128 -505 285 -1047 431 -1495 36 -113 68 -214 71
-225 l4 -20 -16 20 c-9 11 -116 164 -237 340 -121 176 -290 416 -376 535 -86
118 -262 361 -391 540 -129 179 -309 424 -401 545 -91 121 -244 324 -340 450
-192 255 -398 511 -454 565 -34 32 -37 33 -53 17 -16 -16 -16 -21 0 -84 33
-127 187 -424 367 -708 211 -333 418 -608 631 -840 388 -423 760 -917 1319
-1751 l168 -250 126 -335 c98 -262 235 -610 293 -748 13 -31 -23 5 -247 242
-479 507 -587 610 -830 791 -144 108 -228 152 -306 162 -66 9 -170 79 -236
158 -52 62 -93 142 -153 296 -60 153 -167 351 -280 515 -79 115 -178 275 -240
390 -26 50 -61 113 -76 142 -93 168 -513 1026 -646 1318 -358 785 -437 970
-488 1137 -31 103 -26 120 38 147 132 57 446 76 581 35z m35720 0 c150 -30
197 -63 177 -127 -50 -155 -72 -214 -136 -367 -40 -96 -84 -200 -98 -230 -228
-501 -297 -653 -339 -745 -91 -198 -512 -1046 -608 -1225 -92 -173 -237 -412
-290 -480 -63 -81 -224 -375 -266 -486 -74 -193 -117 -274 -186 -345 -77 -80
-137 -116 -222 -134 -86 -18 -150 -52 -286 -152 -179 -132 -403 -339 -665
-615 -321 -338 -418 -438 -421 -435 -1 1 42 112 96 247 53 135 148 380 210
545 l112 300 149 222 c260 391 358 532 548 793 221 305 476 630 621 794 58 66
159 181 225 255 294 331 615 804 821 1206 54 107 101 213 115 263 21 77 22 83
6 99 -16 16 -19 15 -58 -22 -22 -22 -66 -71 -98 -110 -31 -38 -84 -104 -118
-145 -255 -311 -1346 -1799 -1758 -2398 -125 -182 -230 -330 -232 -328 -3 2
27 100 65 218 145 441 309 1011 442 1532 39 153 78 292 85 307 28 53 167 229
220 277 36 33 69 53 102 62 143 40 348 241 602 593 79 109 178 237 220 285
174 197 390 331 586 362 70 12 285 2 379 -16z m-37216 -2389 c294 -61 915
-437 1517 -919 122 -97 418 -349 500 -425 98 -91 383 -361 624 -589 370 -353
780 -700 945 -801 35 -22 89 -47 120 -57 45 -14 66 -28 97 -65 37 -44 95 -164
119 -246 27 -94 60 -225 75 -303 10 -47 21 -105 26 -130 10 -44 25 -139 54
-335 15 -104 39 -296 55 -450 6 -49 12 -101 15 -115 3 -14 9 -68 15 -120 5
-52 18 -171 29 -265 11 -93 24 -233 30 -310 6 -77 13 -160 15 -185 6 -62 -11
-204 -30 -248 -25 -60 -62 -90 -139 -114 -65 -20 -89 -22 -330 -21 -385 2
-599 44 -876 172 -371 171 -745 521 -1063 996 -120 178 -305 485 -386 640 -34
66 -84 161 -110 210 -26 50 -141 275 -255 500 -190 375 -442 837 -680 1250
-183 317 -366 672 -464 902 -196 460 -254 652 -255 843 -1 115 9 143 59 176
54 35 150 38 293 9z m38536 -3 c61 -36 71 -62 69 -180 -3 -184 -60 -382 -216
-752 -126 -299 -289 -622 -497 -985 -310 -541 -454 -804 -655 -1200 -381 -750
-434 -849 -597 -1119 -77 -126 -175 -280 -219 -343 -423 -604 -856 -940 -1374
-1065 -169 -41 -262 -50 -530 -51 -241 -1 -265 1 -330 21 -183 56 -201 180
-125 857 11 99 25 222 30 273 5 51 14 123 19 160 6 37 15 112 21 167 10 86 33
262 70 525 5 36 16 99 25 140 8 41 20 101 25 132 14 76 74 313 93 363 9 22 24
62 34 88 10 27 38 74 63 105 38 47 54 59 105 75 81 27 154 73 323 206 227 177
433 359 767 676 487 464 604 572 795 735 286 245 314 268 517 422 544 412
1073 714 1328 756 39 7 81 14 95 16 45 8 134 -4 164 -22z m-33537 -4344 c207
-438 641 -1277 819 -1586 30 -52 54 -96 54 -98 0 -2 -35 -21 -77 -42 -67 -32
-88 -37 -148 -37 -62 0 -75 4 -115 32 -113 78 -222 248 -444 693 -306 614
-406 851 -406 963 0 57 46 133 108 180 70 53 105 76 115 76 4 1 46 -81 94
-181z m28381 165 c124 -79 175 -140 187 -224 15 -104 -79 -333 -416 -1009
-158 -316 -248 -469 -337 -574 -114 -136 -207 -157 -359 -82 -40 20 -73 37
-73 40 0 2 26 50 59 107 207 367 606 1138 809 1567 50 105 94 192 97 192 3 0
18 -8 33 -17z m-30845 -1774 c173 -35 262 -80 332 -171 81 -103 191 -143 462
-169 144 -13 288 -9 603 17 396 32 498 -2 546 -181 17 -63 19 -112 19 -515 0
-469 -4 -518 -45 -540 -15 -8 -27 -7 -47 4 -33 17 -168 153 -278 281 -119 138
-214 232 -280 280 -57 41 -310 195 -320 195 -2 0 -69 30 -147 66 -79 36 -179
79 -223 94 -44 16 -125 45 -180 65 -212 76 -498 141 -737 167 -142 15 -285 -1
-340 -37 -63 -42 -49 -62 72 -113 147 -62 407 -124 865 -208 77 -14 163 -29
190 -34 76 -13 177 -41 208 -56 68 -35 16 -65 -242 -141 -312 -91 -349 -97
-561 -96 -187 1 -251 10 -421 56 -318 88 -572 286 -628 490 -38 134 30 292
168 390 112 80 339 155 536 177 114 12 333 2 448 -21z m33621 20 c306 -31 554
-139 658 -288 79 -113 87 -228 25 -353 -125 -253 -519 -450 -949 -473 -208
-11 -332 9 -664 108 -224 67 -272 97 -206 131 33 17 138 45 207 56 40 7 241
43 350 64 338 63 566 121 705 178 121 51 135 72 73 112 -49 32 -185 51 -301
42 -200 -17 -542 -89 -728 -154 -245 -86 -324 -116 -410 -157 -55 -26 -121
-56 -149 -68 -68 -28 -308 -171 -375 -223 -62 -48 -171 -158 -280 -284 -109
-126 -231 -249 -263 -266 -25 -14 -31 -14 -51 0 -13 8 -27 27 -31 43 -11 46
-20 554 -13 763 15 422 74 467 568 426 315 -26 459 -30 603 -17 271 26 381 66
462 169 67 87 161 137 314 169 145 30 303 38 455 22z m-30659 -584 c338 -121
597 -238 818 -370 l95 -56 147 -237 c149 -237 332 -521 471 -726 41 -60 72
-112 69 -114 -3 -3 -67 55 -142 129 -233 227 -523 463 -605 492 -23 8 -49 -19
-41 -41 33 -86 208 -329 410 -567 284 -335 528 -657 646 -851 135 -225 214
-377 246 -474 23 -67 66 -300 80 -425 9 -74 1 -115 -22 -115 -45 0 -282 187
-475 375 -139 134 -506 535 -681 743 -347 411 -606 778 -649 917 -6 22 -16 83
-22 136 -22 209 -70 309 -229 474 -169 174 -283 349 -390 597 -56 127 -56 130
-40 160 20 36 125 21 314 -47z m27576 42 c12 -28 -11 -94 -91 -262 -94 -196
-192 -335 -351 -500 -65 -67 -119 -133 -138 -168 -41 -78 -71 -189 -86 -319
-10 -85 -19 -121 -47 -180 -43 -89 -193 -317 -297 -449 -42 -54 -105 -135
-141 -181 -409 -524 -1097 -1224 -1298 -1322 -43 -20 -44 -20 -58 -2 -17 24
-13 64 27 301 33 197 81 339 152 452 13 21 35 58 49 83 77 138 95 169 123 210
17 25 71 104 120 175 96 140 240 323 480 610 205 245 306 378 371 487 74 126
70 170 -11 126 -126 -67 -336 -241 -596 -495 -108 -105 -141 -132 -123 -100 4
6 56 84 115 173 133 200 367 564 482 750 l88 141 83 51 c237 145 543 281 916
406 132 45 214 49 231 13z m-29751 -1137 c708 -46 937 -79 1195 -169 241 -85
431 -219 735 -521 493 -490 870 -954 870 -1072 0 -68 -65 -64 -240 15 -14 7
-117 62 -230 123 -329 180 -495 240 -635 231 -134 -8 -222 22 -385 133 -107
73 -161 101 -280 144 -338 124 -865 206 -1313 206 -223 0 -259 -2 -370 -25
-67 -13 -144 -32 -172 -40 -64 -20 -125 -60 -125 -83 0 -52 138 -120 405 -201
72 -21 166 -50 210 -65 44 -14 123 -36 175 -50 52 -13 129 -33 170 -44 41 -11
102 -25 135 -32 56 -11 150 -32 290 -65 170 -39 472 -90 625 -104 249 -24 447
-73 621 -154 41 -19 92 -42 114 -51 135 -56 541 -343 598 -423 61 -86 13 -137
-257 -268 -105 -51 -219 -105 -253 -119 -35 -14 -86 -37 -115 -50 -194 -89
-306 -135 -420 -173 l-48 -16 -85 42 c-48 22 -88 41 -91 41 -2 0 -89 39 -192
86 -103 47 -209 95 -236 106 -27 10 -87 37 -133 59 -46 21 -87 39 -90 39 -3 0
-51 20 -107 44 -55 25 -189 82 -296 127 -357 149 -634 307 -722 411 -25 29
-82 103 -126 165 -44 61 -129 172 -189 246 -318 396 -518 664 -655 882 l-70
110 54 48 c118 105 277 236 337 276 139 94 295 150 501 181 134 21 559 26 800
10z m32383 -6 c213 -29 388 -91 528 -185 63 -42 232 -182 336 -276 l53 -48
-68 -110 c-86 -138 -152 -230 -338 -475 -214 -279 -248 -323 -339 -435 -45
-55 -119 -152 -165 -215 -46 -63 -103 -139 -128 -168 -87 -103 -367 -263 -726
-413 -105 -44 -237 -100 -292 -125 -56 -24 -104 -44 -108 -44 -3 0 -45 -18
-93 -41 -49 -23 -108 -49 -133 -59 -25 -10 -129 -57 -232 -104 -103 -47 -190
-86 -192 -86 -3 0 -43 -19 -91 -41 l-85 -42 -48 16 c-152 51 -505 204 -798
347 -259 126 -308 178 -247 263 59 82 445 356 592 419 25 12 79 36 120 55 174
81 370 130 616 153 206 20 534 79 755 135 30 7 101 23 157 34 57 12 129 28
160 37 32 9 105 28 163 43 58 15 121 33 140 40 88 29 222 71 291 90 130 36
284 104 327 143 64 61 -19 110 -272 163 -113 23 -145 25 -372 25 -523 0 -1115
-106 -1450 -260 -22 -10 -84 -48 -137 -84 -175 -118 -256 -147 -392 -139 -65
4 -95 1 -165 -20 -101 -29 -242 -86 -325 -132 -33 -18 -85 -46 -115 -62 -30
-17 -95 -52 -145 -80 -49 -27 -131 -66 -181 -87 -100 -41 -148 -44 -170 -11
-52 81 318 549 861 1090 542 540 766 621 1915 695 226 14 673 11 793 -6z
m-27978 -2914 c436 -23 812 -141 1108 -346 45 -32 100 -70 122 -85 65 -44 289
-241 441 -388 273 -262 308 -338 184 -401 -36 -18 -78 -32 -270 -90 -304 -92
-840 -109 -1325 -41 -139 19 -315 23 -565 12 -257 -12 -286 -14 -595 -51 -283
-34 -327 -40 -395 -55 -62 -13 -176 -34 -375 -70 -49 -9 -135 -27 -190 -40
-55 -13 -145 -33 -200 -45 -55 -12 -145 -32 -200 -45 -475 -112 -752 -165
-865 -165 -54 0 -61 3 -77 27 -27 41 -21 183 11 262 62 154 256 427 476 674
255 285 487 455 783 571 161 64 261 92 522 150 79 17 284 49 420 65 50 6 149
18 220 26 125 15 471 42 565 43 25 1 117 -3 205 -8z m23220 -5 c401 -26 819
-82 1095 -145 407 -93 667 -214 935 -436 262 -217 646 -702 741 -934 19 -47
24 -80 25 -150 2 -123 -9 -140 -92 -140 -65 0 -163 12 -274 35 -98 19 -470
101 -590 130 -55 13 -145 33 -200 45 -55 12 -145 32 -200 45 -55 13 -140 31
-190 40 -86 15 -150 27 -400 74 -60 12 -168 28 -240 36 -71 8 -204 23 -295 34
-91 11 -291 25 -445 32 -292 12 -398 8 -670 -26 -408 -52 -930 -28 -1205 55
-335 100 -373 126 -324 221 42 81 241 290 439 459 186 159 233 196 345 272
323 221 675 335 1100 358 207 11 211 11 445 -5z m-20470 -1697 c133 -67 204
-126 490 -402 400 -387 748 -712 1083 -1010 67 -60 120 -112 117 -114 -3 -3
-75 -4 -160 -3 -454 6 -829 163 -1169 490 -169 163 -377 477 -500 756 -53 121
-66 164 -66 231 0 50 12 77 40 87 29 11 105 -5 165 -35z m17492 15 c19 -25 16
-116 -7 -181 -56 -165 -228 -478 -364 -662 -175 -238 -397 -420 -670 -550
-212 -101 -424 -148 -679 -151 -87 -1 -160 0 -162 3 -3 3 52 56 122 119 337
300 696 635 1058 987 121 118 252 240 290 272 113 92 238 167 310 184 35 8 89
-3 102 -21z m-19002 -388 c252 -34 376 -70 502 -143 102 -60 143 -110 143
-175 0 -78 -93 -155 -253 -210 -134 -46 -187 -55 -397 -67 -200 -12 -310 -29
-460 -72 -118 -34 -230 -65 -275 -77 -34 -10 -301 -110 -453 -171 -279 -111
-897 -431 -1167 -605 -138 -89 -215 -163 -215 -209 0 -44 150 -88 300 -88 210
1 583 112 725 216 51 38 196 121 275 159 74 35 408 162 485 185 22 6 108 32
190 56 549 163 1204 271 1645 271 270 0 383 -28 468 -113 119 -119 59 -232
-283 -532 -201 -176 -287 -243 -413 -317 -443 -262 -999 -425 -1666 -488 -228
-21 -767 -22 -956 -1 -160 18 -437 60 -535 81 -38 9 -83 18 -100 22 -125 24
-524 148 -715 221 -211 81 -367 180 -423 266 -29 45 -32 58 -32 126 0 65 4 82
30 129 115 209 474 491 1207 949 317 198 532 316 652 359 39 13 112 40 161 59
50 18 135 45 190 58 55 13 127 32 160 40 33 9 132 28 220 42 366 59 701 69
990 29z m20995 10 c178 -16 441 -55 530 -79 30 -9 102 -27 160 -41 58 -14 139
-39 180 -55 42 -16 111 -41 155 -56 44 -15 145 -61 225 -102 130 -68 184 -99
355 -207 28 -17 129 -81 225 -141 467 -290 861 -589 993 -752 88 -109 112
-162 112 -247 0 -65 -3 -77 -33 -121 -54 -78 -174 -161 -334 -230 -162 -70
-658 -229 -803 -257 -16 -4 -61 -13 -100 -22 -96 -21 -372 -63 -535 -81 -188
-21 -727 -20 -956 1 -180 17 -392 46 -514 71 -252 50 -610 155 -767 224 -26
12 -64 28 -83 37 -283 125 -454 239 -745 499 -206 184 -276 266 -305 357 -32
103 82 213 257 247 182 36 610 13 988 -51 99 -17 203 -35 230 -39 140 -23 496
-108 690 -166 83 -24 168 -50 190 -56 86 -25 425 -158 515 -201 52 -26 138
-74 190 -108 293 -191 697 -291 945 -234 83 19 135 47 135 74 0 32 -85 116
-193 189 -115 78 -590 345 -742 417 -55 26 -156 74 -224 107 -68 33 -158 73
-200 90 -242 95 -430 163 -536 194 -366 108 -424 119 -675 134 -225 13 -295
26 -441 82 -130 49 -209 124 -209 198 0 88 112 179 300 243 244 84 636 116
1020 82z m-18428 -1396 c223 -23 495 -96 518 -139 7 -13 6 -23 -4 -33 -15 -15
-27 -20 -156 -66 -186 -66 -374 -136 -545 -203 -196 -77 -532 -212 -580 -233
-89 -39 -271 -107 -338 -126 -73 -22 -78 -22 -94 -6 -16 16 -16 19 1 52 29 53
278 348 380 450 263 262 474 340 818 304z m15549 -19 c222 -58 388 -188 665
-520 165 -199 191 -237 177 -258 -23 -36 -81 -20 -443 126 -614 247 -795 317
-1085 420 -77 28 -152 56 -167 62 -89 41 -4 95 232 147 249 55 468 63 621 23z
m-14711 -1334 c283 -37 330 -51 330 -100 0 -30 -71 -100 -190 -187 -47 -34
-107 -79 -135 -100 -126 -94 -301 -183 -515 -265 -69 -26 -147 -55 -175 -66
-85 -32 -216 -75 -300 -98 -72 -19 -167 -47 -295 -86 -25 -8 -99 -25 -165 -39
-66 -14 -151 -32 -190 -41 -105 -23 -232 -49 -415 -84 -385 -73 -409 -78 -590
-121 -299 -71 -467 -122 -555 -167 -51 -26 -88 -65 -83 -88 17 -89 319 -126
1023 -125 992 0 1392 74 1975 366 69 34 301 165 515 290 648 378 962 525 1125
525 130 0 190 -78 190 -249 0 -46 -7 -71 -30 -116 -82 -156 -318 -383 -625
-601 -233 -165 -383 -247 -672 -368 -177 -74 -638 -211 -843 -251 -47 -9 -139
-27 -205 -40 -482 -94 -779 -119 -1390 -119 -422 0 -474 2 -630 23 -266 35
-386 61 -560 121 -166 58 -255 110 -333 195 -88 94 -106 197 -53 291 94 162
591 557 1071 850 223 136 270 163 375 219 50 26 95 51 100 55 42 31 375 187
545 255 122 49 199 71 335 94 289 50 451 60 845 56 277 -3 354 -7 520 -29z
m14450 24 c227 -16 469 -51 600 -88 78 -22 220 -79 348 -138 52 -24 96 -44 99
-44 9 0 239 -117 281 -143 20 -13 71 -40 112 -62 172 -89 603 -361 812 -512
273 -198 519 -418 590 -527 33 -51 38 -67 38 -116 0 -152 -148 -287 -420 -381
-63 -22 -133 -44 -155 -49 -22 -4 -71 -15 -110 -24 -38 -9 -155 -28 -260 -43
-183 -25 -207 -26 -655 -27 -362 0 -508 4 -660 17 -247 22 -523 58 -660 87
-25 5 -128 25 -230 45 -101 20 -187 38 -190 40 -3 2 -75 21 -160 44 -364 96
-675 218 -970 382 -88 49 -387 260 -462 326 -29 25 -84 73 -122 107 -138 120
-234 233 -287 332 -24 46 -29 68 -29 123 0 118 35 193 107 230 94 48 351 -38
745 -250 134 -72 193 -106 478 -274 607 -358 875 -475 1310 -568 96 -21 360
-52 561 -67 148 -11 1101 -16 1116 -7 5 3 74 10 154 16 286 23 406 75 337 148
-55 59 -229 120 -598 207 -185 44 -254 58 -585 121 -158 30 -351 69 -440 89
-33 8 -116 26 -185 40 -69 14 -145 32 -170 40 -128 39 -223 67 -295 86 -85 23
-217 66 -300 98 -27 11 -116 44 -197 75 -227 86 -362 160 -583 321 -132 96
-224 178 -232 205 -17 67 52 87 447 131 180 20 594 25 820 10z m-9274 -2303
c181 -107 338 -198 348 -204 17 -9 2 -20 -115 -78 -74 -37 -168 -87 -209 -110
-41 -23 -111 -62 -155 -85 -148 -80 -308 -184 -543 -356 -53 -39 -146 -102
-207 -140 -156 -99 -532 -301 -685 -368 -36 -16 -105 -48 -155 -71 -327 -154
-944 -371 -1205 -425 -58 -11 -127 -25 -153 -31 -64 -12 -193 -12 -240 2 -43
12 -72 48 -63 82 14 57 58 101 287 287 69 55 374 256 534 351 291 173 409 243
475 279 137 77 611 356 725 428 294 184 392 245 965 597 30 19 58 34 61 35 3
0 154 -87 335 -193z m3752 36 c141 -86 388 -238 547 -338 303 -190 373 -232
725 -437 891 -520 1070 -633 1315 -829 128 -102 167 -142 193 -197 15 -30 15
-36 1 -60 -8 -15 -30 -32 -49 -39 -43 -14 -181 -16 -247 -4 -197 39 -274 58
-388 93 -207 64 -395 127 -460 152 -316 125 -416 166 -513 212 -63 30 -116 54
-118 54 -8 0 -289 139 -339 168 -27 15 -99 55 -160 87 -147 78 -286 168 -504
324 -100 72 -221 154 -269 184 -127 79 -414 238 -565 313 l-131 66 89 52 c49
28 204 119 345 203 140 83 258 151 263 152 4 1 123 -69 265 -156z"/>
<path d="M39785 53889 c-121 -33 -330 -89 -465 -125 -135 -36 -360 -96 -500
-134 -140 -38 -376 -101 -525 -140 -148 -40 -418 -112 -600 -160 -701 -188
-1044 -280 -1135 -303 -52 -14 -392 -104 -755 -202 -815 -218 -2150 -574
-2585 -690 -325 -87 -802 -214 -1215 -325 -121 -32 -391 -104 -600 -160 -209
-56 -571 -152 -805 -215 -234 -63 -636 -170 -895 -239 -258 -69 -648 -173
-865 -231 -217 -58 -555 -148 -750 -200 -502 -134 -571 -152 -576 -158 -3 -3
27 -49 66 -102 262 -355 569 -864 790 -1310 321 -649 494 -1164 581 -1735 27
-175 37 -546 20 -715 -73 -710 -414 -1248 -1046 -1646 -347 -219 -861 -410
-1396 -518 -338 -69 -816 -130 -1144 -146 -66 -3 -135 -8 -153 -11 l-33 -5 5
-62 c41 -434 73 -680 141 -1092 399 -2423 1326 -5075 2613 -7477 2577 -4808
6583 -8809 11787 -11770 121 -69 234 -132 251 -141 l31 -16 199 113 c1395 790
2741 1678 3954 2610 1463 1123 2786 2336 3986 3656 545 600 1124 1297 1611
1940 1840 2433 3239 5100 4143 7900 470 1456 807 2992 915 4169 8 91 13 167
10 169 -2 3 -26 6 -52 8 -27 2 -120 8 -208 14 -959 65 -1791 275 -2348 592
-686 389 -1067 941 -1152 1666 -17 147 -20 438 -5 597 76 814 467 1799 1113
2805 92 143 239 357 304 443 24 33 42 61 39 64 -5 5 -165 48 -1101 298 -302
81 -701 187 -885 236 -184 50 -477 128 -650 174 -173 46 -544 145 -825 220
-280 75 -609 163 -730 195 -222 59 -1610 429 -2770 740 -346 92 -979 261
-1405 375 -426 114 -1092 291 -1480 395 -388 104 -977 261 -1310 350 -333 89
-772 206 -976 261 -204 54 -377 99 -385 98 -8 0 -113 -27 -234 -60z m444 -499
c102 -27 269 -71 371 -99 386 -103 899 -241 1010 -270 63 -16 360 -95 660
-176 300 -80 662 -177 805 -215 143 -38 413 -110 600 -160 187 -50 711 -190
1165 -311 454 -121 998 -267 1210 -324 212 -57 482 -129 600 -160 118 -31 465
-123 770 -205 717 -192 965 -258 1235 -330 225 -60 1198 -319 1630 -435 132
-35 449 -120 705 -189 256 -68 512 -136 570 -151 135 -33 170 -45 170 -55 0
-4 -34 -63 -76 -130 -279 -449 -549 -986 -724 -1440 -185 -480 -294 -903 -346
-1345 -22 -191 -22 -573 1 -755 60 -487 224 -901 504 -1275 88 -117 329 -362
451 -459 608 -483 1469 -786 2598 -915 83 -10 154 -20 157 -22 2 -3 -7 -83
-20 -179 -156 -1147 -457 -2412 -881 -3700 -882 -2684 -2231 -5244 -3992
-7580 -1631 -2162 -3595 -4100 -5887 -5810 -1011 -754 -2259 -1572 -3323
-2179 -149 -85 -166 -92 -189 -82 -14 6 -111 62 -217 123 -1694 984 -3234
2058 -4636 3232 -1613 1351 -3041 2828 -4281 4426 -1820 2346 -3235 4964
-4150 7680 -333 987 -581 1903 -764 2825 -110 551 -216 1232 -195 1245 6 4 65
12 133 19 960 98 1805 365 2392 756 177 118 281 202 419 335 411 398 657 884
753 1490 26 166 26 705 0 900 -103 761 -407 1581 -908 2452 -60 104 -136 232
-169 284 -33 52 -60 99 -60 104 0 10 34 21 170 55 58 14 186 48 285 75 244 66
999 268 2770 740 292 78 654 174 805 215 490 132 990 265 1215 324 121 32 324
86 450 120 127 34 660 177 1185 317 525 141 1115 298 1310 350 195 53 429 115
520 139 147 38 511 136 1070 286 102 28 295 79 430 114 135 36 520 139 855
229 336 91 621 165 634 165 13 1 107 -21 210 -49z"/>
<path d="M39600 50784 c-473 -55 -763 -181 -1058 -459 -238 -224 -393 -501
-449 -805 -24 -130 -24 -400 0 -530 35 -189 124 -395 244 -563 75 -105 243
-279 360 -373 196 -158 589 -406 1068 -674 470 -263 782 -448 909 -538 184
-131 355 -333 431 -510 59 -135 70 -190 70 -352 0 -157 -12 -220 -62 -334 -69
-158 -226 -337 -375 -430 -395 -245 -1029 -244 -1526 2 -352 175 -589 415
-721 733 -74 180 -166 508 -197 707 l-7 42 -78 0 -79 0 0 -1005 0 -1005 79 0
78 0 12 73 c7 41 25 101 40 133 50 105 118 141 246 130 83 -7 191 -36 535
-146 473 -151 599 -177 915 -187 375 -12 705 55 1000 202 175 88 295 175 445
325 246 246 389 508 447 820 24 133 24 411 -1 535 -63 319 -200 571 -440 811
-216 216 -480 386 -1216 787 -1074 584 -1412 857 -1495 1210 -20 83 -19 250 1
340 40 180 168 368 342 505 284 222 731 273 1155 132 363 -121 657 -348 838
-647 123 -203 215 -479 269 -806 l23 -137 79 0 78 0 0 1010 0 1010 -78 0 -79
0 -22 -84 c-45 -170 -136 -256 -271 -256 -55 0 -173 36 -315 97 -399 170 -653
232 -980 238 -99 2 -196 1 -215 -1z"/>
<path d="M32560 48005 l-95 -95 408 -408 c224 -224 405 -410 403 -413 -3 -3
10 -21 29 -39 19 -19 35 -30 35 -24 0 5 1456 -1447 3235 -3226 l3235 -3235
-3672 -3672 -3673 -3673 98 -97 97 -98 3673 3673 3672 3672 3672 -3672 3673
-3673 97 98 98 97 -3673 3673 -3672 3672 3672 3672 3673 3673 -98 97 -97 98
-3673 -3673 -3672 -3672 -3248 3248 c-1786 1786 -3245 3251 -3241 3255 10 10
-17 39 -31 33 -7 -2 -194 178 -416 400 -222 222 -406 404 -409 404 -3 0 -48
-43 -100 -95z"/>
<path d="M46685 43599 c-701 -66 -1305 -338 -1783 -803 -730 -710 -1059 -1776
-892 -2889 91 -605 375 -1176 799 -1611 357 -365 753 -587 1256 -705 504 -117
1111 -105 1570 31 568 168 1033 531 1412 1103 91 137 173 271 173 282 0 5 -29
27 -64 50 l-64 42 -88 -117 c-264 -352 -539 -636 -765 -787 -222 -149 -505
-251 -802 -290 -156 -20 -469 -20 -624 0 -250 33 -479 102 -693 209 -658 328
-1032 936 -1147 1866 -24 199 -24 800 0 1035 70 670 248 1189 544 1582 339
451 874 703 1493 703 543 0 1012 -190 1349 -546 231 -244 418 -582 553 -1001
l43 -133 69 0 68 0 -6 73 c-4 39 -15 209 -26 377 -11 168 -38 572 -60 899 -22
327 -40 605 -40 618 0 22 -3 23 -78 23 l-79 0 -12 -52 c-29 -127 -119 -262
-209 -316 -41 -24 -57 -27 -132 -27 -85 0 -85 0 -235 71 -265 127 -403 180
-610 234 -296 78 -629 106 -920 79z"/>
<path d="M30790 43401 l0 -79 183 -5 c214 -5 303 -25 408 -87 94 -55 154 -125
179 -208 57 -184 54 -38 57 -2382 3 -1472 1 -2193 -7 -2274 -12 -137 -34 -242
-63 -304 -28 -62 -123 -152 -198 -190 -108 -53 -165 -64 -371 -69 l-188 -5 0
-79 0 -79 1250 0 1250 0 0 79 0 79 -197 5 c-136 3 -215 10 -253 21 -153 44
-278 142 -319 250 -66 176 -71 275 -71 1362 l0 941 147 -29 c662 -127 1207
-117 1623 32 220 78 390 182 548 334 227 219 366 470 427 770 39 190 50 354
36 499 -40 417 -201 729 -519 1010 -329 290 -716 422 -1382 472 -167 12 -421
15 -1372 15 l-1168 0 0 -79z m2499 -301 c373 -76 637 -276 800 -606 58 -117
113 -283 137 -414 28 -147 26 -479 -4 -617 -37 -171 -85 -288 -177 -428 -136
-209 -364 -385 -586 -453 -201 -62 -474 -54 -911 24 l-98 17 0 1212 0 1212
103 22 c99 20 261 46 342 55 85 9 296 -4 394 -24z"/>
<path d="M40175 37923 c-11 -77 -67 -258 -170 -553 -121 -347 -150 -395 -201
-334 -59 72 -84 222 -79 459 4 146 20 318 40 430 6 29 4 28 -40 -20 -25 -27
-66 -81 -91 -119 -162 -242 -196 -482 -99 -682 l34 -69 -23 -24 -24 -23 -62
33 c-147 78 -233 248 -296 587 -4 21 -34 32 -34 12 0 -5 -7 -10 -15 -10 -8 0
-15 -4 -15 -10 0 -5 -7 -10 -15 -10 -8 0 -15 -7 -15 -15 0 -8 -6 -15 -14 -15
-21 0 -26 -23 -26 -109 0 -161 66 -343 217 -594 36 -60 62 -111 59 -114 -12
-12 -164 26 -228 56 -65 32 -182 136 -202 181 -19 42 -28 18 -24 -62 4 -104
30 -163 121 -276 37 -45 67 -89 67 -96 0 -21 -75 -47 -148 -51 -35 -2 -69 -8
-74 -13 -16 -16 23 -79 106 -174 42 -48 76 -92 76 -97 0 -19 -73 -48 -100 -40
-14 4 -53 7 -88 8 -93 1 -97 -30 -16 -139 46 -62 48 -72 17 -76 -64 -10 -93
-31 -93 -70 0 -28 31 -94 66 -140 31 -41 30 -54 -4 -54 -16 0 -37 -9 -46 -19
-15 -17 -16 -22 -3 -52 8 -19 35 -58 61 -86 47 -52 47 -53 21 -53 -95 0 -87
-91 20 -230 23 -30 52 -64 64 -74 26 -24 27 -36 2 -36 -34 0 -51 -12 -51 -35
0 -27 26 -91 40 -100 24 -15 7 -24 -35 -18 -25 3 -45 3 -45 -1 0 -4 16 -46 37
-93 l36 -85 -34 -68 c-19 -38 -37 -69 -40 -69 -3 -1 -11 10 -17 24 -15 32 -29
32 -29 1 0 -32 -27 -65 -99 -122 -94 -75 -154 -136 -171 -174 -22 -51 -19
-170 6 -252 40 -127 133 -287 216 -372 24 -25 40 -47 37 -50 -3 -3 -24 -6 -46
-6 -23 0 -65 -12 -96 -26 -43 -21 -75 -27 -150 -31 -87 -5 -97 -3 -123 17 -15
12 -39 43 -53 68 -35 62 -91 144 -172 250 -36 48 -80 119 -98 159 -42 91 -138
370 -153 444 -12 56 -43 98 -84 112 -26 9 -82 -45 -114 -111 -25 -51 -28 -67
-27 -157 0 -91 16 -167 51 -254 12 -30 -18 -3 -71 64 -80 101 -155 240 -166
311 -10 59 -28 87 -66 98 -31 9 -99 -64 -125 -134 -24 -63 -20 -130 12 -216
20 -52 101 -178 147 -226 14 -15 23 -31 19 -34 -8 -8 -194 136 -342 266 -151
133 -161 140 -207 140 -53 0 -78 -27 -78 -85 0 -65 20 -96 135 -215 99 -102
165 -189 165 -218 0 -12 -4 -12 -22 2 -49 35 -82 48 -130 51 -37 3 -91 23
-199 75 -82 39 -154 68 -160 64 -8 -4 -10 -27 -6 -70 12 -129 105 -252 276
-365 79 -52 104 -79 59 -62 -13 4 -59 7 -103 5 -55 -1 -123 6 -216 25 -75 14
-143 23 -152 20 -13 -5 -14 -12 -7 -37 33 -114 147 -222 347 -331 35 -19 61
-38 60 -44 -2 -6 -66 -13 -148 -16 -150 -6 -269 -30 -269 -55 0 -7 15 -32 33
-56 61 -80 147 -111 437 -159 41 -7 79 -16 84 -20 16 -14 -76 -50 -204 -80
-120 -27 -198 -50 -222 -65 -13 -8 53 -69 102 -94 59 -30 141 -50 232 -57 47
-3 92 -9 99 -14 9 -5 1 -20 -29 -53 -110 -119 -46 -167 196 -146 68 6 126 9
128 7 2 -2 -4 -22 -13 -46 -16 -41 -16 -43 5 -64 21 -20 24 -21 114 -9 51 7
105 15 120 18 23 5 29 1 47 -35 12 -23 25 -41 29 -41 12 0 89 50 172 113 41
31 78 57 81 57 3 0 3 -26 1 -59 -3 -44 1 -69 17 -106 19 -44 23 -47 48 -40 41
9 100 53 140 102 46 55 57 55 50 -2 -4 -25 -4 -45 -1 -45 3 0 26 16 50 36 47
38 68 39 44 1 -23 -36 -59 -111 -55 -116 10 -10 61 37 132 122 111 132 131
149 210 179 119 46 139 46 211 1 34 -21 62 -42 62 -46 0 -5 -18 -16 -40 -24
-22 -9 -40 -19 -40 -23 0 -4 71 -34 158 -66 86 -33 155 -64 152 -69 -3 -5 -16
-8 -30 -6 -14 2 -68 6 -120 10 -87 6 -99 5 -135 -15 -36 -20 -45 -21 -82 -11
-47 12 -48 12 -57 -20 -9 -27 24 -46 164 -93 146 -49 148 -52 60 -66 -168 -28
-196 -36 -184 -55 12 -20 109 -61 202 -85 53 -13 109 -31 124 -39 14 -8 35
-15 46 -15 48 0 37 -55 -15 -76 -30 -13 -37 -28 -15 -30 27 -2 72 -17 72 -24
0 -5 -30 -18 -66 -30 -36 -12 -62 -25 -59 -28 7 -8 51 -12 158 -16 43 -1 83
-8 89 -14 7 -7 20 -12 31 -12 31 0 14 -22 -28 -37 -21 -7 -47 -20 -56 -29 -11
-10 -25 -13 -38 -9 -12 4 -21 2 -21 -4 0 -15 52 -39 101 -47 24 -4 67 -19 94
-34 49 -27 50 -29 57 -84 8 -60 25 -101 55 -128 25 -23 103 -58 131 -58 20 0
17 5 -23 43 -25 24 -45 49 -45 55 0 8 18 12 50 12 27 0 60 5 74 11 33 15 46 4
82 -68 17 -35 57 -87 106 -136 43 -43 77 -84 75 -90 -2 -7 -26 -23 -53 -37
-46 -24 -49 -28 -58 -77 -13 -75 0 -141 34 -175 25 -24 36 -28 88 -28 32 0 61
3 65 6 3 4 -8 16 -26 28 -36 24 -79 84 -71 97 3 5 16 6 28 3 29 -7 56 18 56
51 0 20 7 25 35 31 19 3 39 12 46 20 6 8 20 14 29 14 10 0 39 9 65 20 51 22
64 19 117 -26 15 -12 45 -25 68 -29 42 -7 53 -28 28 -53 -22 -22 -1 -22 33 1
51 34 58 65 28 124 -22 42 -31 49 -72 61 -53 15 -58 29 -27 80 22 35 63 44 74
16 4 -11 13 -14 31 -10 20 5 25 3 25 -13 0 -11 -4 -31 -10 -45 -6 -18 -6 -26
1 -26 13 0 59 104 59 134 0 32 -33 108 -55 126 -17 14 -35 10 -117 -24 -13 -6
-20 0 -32 28 -19 47 -44 47 -107 1 -27 -19 -53 -35 -58 -35 -21 0 -96 99 -133
175 -51 107 -43 146 18 90 32 -30 50 -31 89 -5 17 11 33 20 38 20 12 0 7 -62
-8 -105 -8 -22 -15 -44 -15 -49 0 -15 60 46 76 76 17 33 18 107 2 145 -6 15
-14 75 -18 133 -6 114 -23 163 -56 168 -12 2 -46 -8 -77 -22 -31 -14 -59 -21
-62 -17 -4 8 11 75 80 336 48 182 45 241 -20 397 -11 27 62 41 180 35 112 -5
198 -28 227 -60 36 -40 135 -172 161 -214 33 -52 56 -68 129 -87 32 -8 73 -26
90 -40 18 -13 58 -32 88 -41 132 -41 172 -62 261 -140 49 -43 89 -82 89 -87 0
-6 -9 -21 -20 -35 -34 -44 -27 -56 28 -48 68 10 122 36 159 78 39 44 53 91 53
177 0 36 4 79 9 97 22 78 -32 330 -144 662 -81 243 -79 246 73 195 175 -58
358 -166 482 -284 110 -105 273 -170 469 -189 47 -5 172 -31 276 -59 251 -67
303 -76 382 -69 64 6 110 27 173 76 l25 20 -29 11 c-31 11 -105 61 -106 71 0
3 24 13 53 22 68 22 173 92 288 192 92 80 266 262 258 270 -3 2 -25 -10 -49
-27 -140 -96 -350 -158 -448 -132 -32 9 -24 23 38 66 185 128 327 342 367 552
19 98 13 260 -13 356 -21 78 -34 97 -34 48 0 -52 -28 -194 -52 -263 -42 -120
-93 -206 -175 -291 -45 -46 -148 -124 -165 -124 -12 0 -35 52 -52 117 -14 54
-14 69 -2 130 25 120 30 258 12 359 -25 143 -68 227 -175 337 -56 57 -80 73
-62 39 5 -10 18 -56 28 -103 34 -159 16 -590 -26 -633 -17 -17 -24 -18 -66 -7
-76 19 -183 79 -231 128 -86 88 -151 272 -161 456 -3 53 -9 97 -14 97 -16 0
-90 -125 -105 -178 -24 -80 -14 -208 26 -336 16 -55 28 -101 26 -104 -11 -11
-112 34 -165 73 -100 74 -209 205 -248 301 -10 24 -21 44 -25 44 -4 0 -12 -17
-18 -39 -17 -65 14 -177 71 -250 23 -29 24 -51 3 -51 -22 0 -158 102 -232 174
-51 50 -64 58 -72 46 -14 -22 -12 -63 6 -116 8 -25 13 -48 11 -51 -6 -5 -152
91 -162 107 -15 24 -27 9 -21 -25 4 -19 5 -35 2 -35 -3 0 -29 18 -58 40 -62
47 -71 49 -62 15 3 -14 3 -25 0 -25 -4 0 -41 21 -83 47 -171 104 -509 247
-628 267 -60 10 -73 20 -54 43 9 10 23 47 32 83 35 145 76 202 181 254 99 49
174 119 226 208 56 97 156 239 225 318 94 109 185 331 185 452 0 31 -19 87
-36 106 -5 7 -128 -69 -156 -96 -35 -32 -44 -24 -28 24 21 62 8 175 -35 300
l-37 111 27 43 c61 97 320 638 310 648 -9 9 -96 -71 -212 -195 -180 -194 -239
-253 -251 -253 -32 0 -26 181 12 350 38 170 128 392 215 534 54 88 79 152 87
224 l6 57 -34 -48 c-19 -26 -82 -98 -140 -160 -163 -175 -261 -323 -336 -507
-22 -52 -43 -94 -47 -93 -4 1 -35 52 -70 113 l-62 111 13 57 c8 31 14 71 14
87 0 59 31 147 100 288 107 219 172 434 153 507 l-9 34 -93 -110 c-168 -197
-316 -407 -368 -521 -21 -45 -28 -82 -34 -161 -7 -97 -33 -202 -50 -202 -15 0
-70 90 -88 144 -47 136 -52 392 -11 531 30 100 38 270 16 355 -22 84 -32 93
-41 33z"/>
<path d="M41252 31123 c-19 -7 -42 -58 -42 -92 0 -16 -4 -41 -10 -56 -7 -18
-6 -37 4 -65 8 -22 10 -42 6 -45 -13 -8 -22 11 -55 110 -25 75 -36 93 -64 112
-30 20 -37 22 -55 10 -35 -23 -68 -93 -73 -157 -11 -116 34 -298 118 -481 l31
-67 -16 -78 c-9 -44 -19 -111 -23 -151 -5 -65 -8 -73 -32 -82 -78 -32 -191
-33 -287 -2 -16 6 -83 26 -149 46 -230 70 -311 98 -420 146 -197 86 -378 126
-515 115 -137 -11 -220 -43 -315 -121 -43 -34 -64 -44 -107 -49 -175 -22 -201
-37 -276 -163 -31 -51 -60 -93 -65 -93 -5 0 -30 23 -56 50 -67 71 -78 69 -192
-41 -51 -50 -146 -132 -209 -183 -138 -112 -230 -200 -259 -247 -25 -41 -26
-49 -6 -49 12 0 10 -10 -10 -49 -14 -28 -21 -53 -16 -56 5 -3 12 -1 16 5 11
19 26 10 20 -11 -6 -19 -4 -20 24 -14 24 5 31 3 31 -9 0 -21 10 -20 76 9 31
14 66 25 78 25 11 0 49 18 83 40 48 30 69 51 90 91 71 132 161 219 226 219 33
0 33 -6 1 -69 -36 -73 -39 -107 -14 -163 11 -26 25 -50 30 -53 10 -6 114 68
151 109 l20 21 21 -30 c41 -57 133 -141 183 -165 38 -18 72 -25 140 -28 111
-5 184 11 309 71 80 38 97 42 160 41 96 -1 169 -36 318 -153 327 -256 522
-341 828 -362 176 -12 224 -24 270 -65 86 -78 186 -124 373 -173 203 -53 360
-121 560 -244 58 -35 288 -117 331 -117 12 0 31 7 42 15 10 8 26 15 35 15 8 0
32 16 53 35 31 28 36 38 27 49 -11 12 -205 66 -239 66 -6 0 -71 32 -144 72
-166 90 -291 151 -343 168 -22 7 -98 41 -170 75 -127 60 -186 97 -174 109 3 3
67 -10 143 -29 159 -40 330 -117 411 -186 72 -61 178 -127 246 -155 61 -25
162 -33 197 -15 9 5 30 14 46 20 27 11 27 13 12 30 -9 10 -16 24 -16 33 0 10
-45 31 -144 67 -133 49 -260 115 -312 163 -12 10 -63 34 -115 53 -96 35 -295
118 -305 127 -3 3 9 28 26 54 86 136 80 323 -17 534 -22 47 -52 104 -66 127
-34 54 -34 59 3 72 17 5 30 14 30 20 0 19 32 41 59 41 47 0 99 77 86 127 -4
18 -1 23 15 23 64 0 -28 111 -170 205 -41 27 -89 62 -106 77 -37 33 -103 64
-188 88 l-61 17 2 72 c1 46 9 87 23 117 24 56 28 199 6 266 -7 24 -19 70 -26
102 -8 41 -21 69 -40 88 -29 28 -35 31 -58 21z"/>
<path d="M39925 27715 c-5 -2 -22 -6 -37 -9 -15 -4 -43 -20 -62 -37 -68 -59
-71 -144 -7 -208 29 -29 56 -42 131 -65 52 -15 105 -34 118 -42 30 -20 28 -57
-4 -83 -63 -49 -155 -33 -187 32 -18 35 -21 37 -67 37 -27 0 -52 -5 -55 -10
-11 -17 41 -115 71 -137 56 -40 153 -53 238 -33 110 25 167 137 119 237 -24
52 -51 66 -226 119 -69 20 -92 51 -63 83 40 44 145 32 168 -19 12 -27 17 -30
59 -30 26 0 51 6 57 13 15 17 -17 87 -52 115 -38 30 -157 52 -201 37z"/>
<path d="M39300 27435 l0 -275 211 0 210 0 -3 43 -3 42 -152 3 -153 3 0 74 0
74 138 3 137 3 0 44 0 44 -135 1 -135 1 -3 62 -3 62 148 3 148 3 0 40 0 40
-202 3 -203 2 0 -275z"/>
<path d="M40234 27696 c-3 -8 -4 -27 -2 -43 3 -28 4 -28 83 -33 l80 -5 3 -227
2 -228 55 0 55 0 0 230 0 230 80 0 80 0 0 45 0 45 -215 0 c-177 0 -217 -3
-221 -14z"/>
<path d="M40660 27215 l0 -55 50 0 50 0 0 55 0 55 -50 0 -50 0 0 -55z"/>
<path d="M39490 26642 c-44 -22 -83 -87 -60 -102 30 -19 64 -11 82 20 13 22
24 30 46 30 37 0 52 -17 52 -58 0 -30 -12 -47 -85 -121 -70 -72 -115 -137
-115 -166 0 -3 64 -4 143 -3 l142 3 0 35 0 35 -77 3 c-43 2 -78 6 -78 10 0 3
30 36 68 72 81 79 102 127 78 184 -29 69 -121 96 -196 58z"/>
<path d="M39813 26644 c-53 -26 -73 -82 -73 -199 0 -79 4 -107 20 -141 53
-108 191 -95 233 21 22 64 19 213 -7 263 -33 64 -107 88 -173 56z m94 -80 c25
-39 24 -216 -2 -244 -26 -29 -52 -25 -71 11 -20 40 -17 216 5 242 20 25 48 21
68 -9z"/>
<path d="M40120 26642 c-43 -21 -81 -89 -59 -103 29 -18 64 -10 81 21 13 22
24 30 46 30 37 0 52 -17 52 -58 0 -30 -12 -47 -85 -121 -70 -72 -115 -137
-115 -166 0 -3 64 -4 143 -3 l142 3 0 35 0 35 -77 3 c-43 2 -78 6 -78 10 0 3
31 36 68 72 78 75 97 121 78 181 -23 70 -119 100 -196 61z"/>
<path d="M40415 26628 c-18 -84 -35 -200 -30 -208 9 -15 57 -12 79 5 66 50
144 -47 86 -105 -11 -11 -29 -20 -40 -20 -21 0 -60 33 -60 50 0 13 -50 13 -70
0 -12 -8 -12 -13 2 -44 61 -128 268 -77 268 66 0 81 -51 132 -132 132 -39 0
-48 3 -48 17 0 44 9 49 86 49 l74 0 0 40 0 40 -105 0 c-100 0 -105 -1 -110
-22z"/>
<path d="M21443 39445 c-47 -20 -66 -65 -67 -161 -1 -72 2 -85 26 -122 35 -53
100 -90 178 -103 111 -18 174 -60 414 -278 310 -284 804 -810 1260 -1346 243
-285 583 -708 679 -844 186 -264 221 -316 256 -383 55 -102 66 -144 52 -196
-15 -53 -57 -102 -133 -153 -166 -113 -271 -279 -227 -361 18 -33 143 -83 259
-103 152 -27 502 -28 577 -2 146 51 130 145 -113 675 -19 41 -34 76 -34 79 0
15 -165 339 -222 438 -103 177 -313 489 -426 635 -261 335 -341 419 -797 836
-143 130 -461 434 -707 675 -552 540 -714 673 -871 714 -69 18 -64 18 -104 0z"/>
<path d="M58497 39444 c-66 -18 -159 -71 -263 -152 -133 -103 -183 -150 -629
-587 -225 -221 -464 -451 -530 -511 -544 -497 -673 -625 -824 -817 -44 -56
-111 -140 -147 -187 -94 -119 -325 -469 -416 -630 -88 -155 -155 -293 -296
-610 -186 -419 -196 -509 -59 -557 44 -15 83 -18 262 -17 304 0 474 35 558
112 36 34 35 70 -3 150 -33 71 -92 133 -200 213 -165 122 -181 182 -94 352 19
37 63 107 96 155 34 48 100 141 147 207 100 142 454 588 635 800 520 610 981
1103 1321 1414 240 220 302 262 415 280 78 13 138 48 176 102 26 39 29 49 28
124 -1 94 -19 136 -70 160 -37 17 -42 17 -107 -1z"/>
<path d="M28140 29605 c-218 -27 -255 -34 -420 -79 -224 -61 -348 -112 -590
-244 -151 -83 -200 -116 -200 -138 0 -18 4 -18 150 12 165 34 168 35 370 82
229 54 551 115 770 148 243 36 599 45 757 19 186 -30 311 -94 498 -254 39 -33
85 -68 102 -78 30 -16 34 -16 49 -1 15 15 15 22 -1 89 -30 133 -71 203 -155
263 -90 65 -194 108 -378 156 -24 6 -120 20 -215 30 -236 27 -493 25 -737 -5z"/>
<path d="M51159 29610 c-274 -33 -448 -89 -585 -191 -81 -59 -113 -114 -145
-240 -39 -158 -3 -158 183 2 156 135 281 195 461 224 158 26 514 17 757 -19
290 -43 610 -108 1045 -211 105 -25 236 -48 242 -42 13 13 -9 38 -64 73 -59
38 -394 210 -448 231 -259 96 -442 139 -737 173 -220 25 -500 25 -709 0z"/>
<path d="M15504 56927 c-34 -56 -182 -300 -329 -542 -147 -242 -389 -640 -538
-885 -149 -245 -372 -611 -495 -815 -124 -203 -340 -559 -480 -790 -140 -231
-270 -444 -289 -474 -19 -29 -31 -57 -26 -61 4 -4 29 -19 55 -34 l47 -27 24
38 c13 21 88 144 167 273 78 129 144 237 146 239 3 4 373 -220 1859 -1124 242
-147 586 -357 765 -465 179 -109 523 -318 765 -465 242 -147 526 -319 630
-382 105 -64 196 -121 204 -129 12 -11 -8 -50 -138 -265 -84 -138 -159 -262
-167 -275 -15 -22 -14 -24 33 -53 26 -17 53 -31 58 -31 6 0 80 116 166 258 86
141 283 466 439 722 156 256 295 485 310 510 15 25 161 266 325 535 164 270
380 625 480 790 100 165 271 446 379 624 162 266 195 326 184 337 -19 18
-1608 1084 -1616 1084 -7 0 -72 -103 -72 -114 0 -3 46 -38 103 -77 287 -203
585 -443 682 -551 123 -136 213 -296 257 -458 19 -73 23 -109 23 -255 0 -145
-4 -184 -24 -265 -72 -292 -252 -636 -798 -1527 l-124 -202 -137 83 c-75 46
-324 197 -552 336 -228 139 -561 341 -740 450 -656 398 -725 441 -722 452 4
16 259 433 323 529 106 158 210 276 328 371 144 116 257 154 431 145 164 -8
327 -62 530 -175 l105 -59 38 58 c20 32 37 62 37 67 0 5 -60 45 -132 89 -73
44 -331 201 -573 348 -738 449 -1169 710 -1174 710 -2 0 -22 -28 -43 -63 l-38
-62 58 -37 c170 -108 357 -280 421 -386 66 -112 85 -172 89 -292 3 -87 0 -128
-17 -197 -49 -208 -123 -363 -356 -747 l-146 -240 -182 111 c-100 61 -328 200
-507 308 -179 109 -419 255 -535 325 -115 70 -325 197 -465 282 -140 85 -260
160 -266 166 -8 9 53 116 233 412 394 646 542 853 763 1075 272 273 450 343
748 295 204 -33 520 -162 795 -324 47 -28 90 -51 96 -51 5 0 24 25 42 56 26
47 29 58 18 68 -8 7 -207 130 -444 273 -236 143 -547 331 -689 418 -143 86
-264 159 -270 161 -6 2 -38 -42 -72 -99z"/>
<path d="M63825 55765 c-525 -61 -1058 -272 -1537 -608 -544 -382 -924 -881
-1116 -1467 -63 -190 -87 -314 -101 -517 -29 -408 71 -839 293 -1268 404 -782
971 -1223 1726 -1345 700 -112 1404 42 2100 459 502 302 883 697 1129 1171
296 572 358 1133 190 1720 -95 329 -307 732 -536 1015 -98 122 -300 319 -406
399 -308 230 -640 365 -1045 426 -180 28 -526 35 -697 15z m1403 -675 c201
-22 362 -82 503 -189 244 -185 468 -539 556 -878 25 -96 28 -125 27 -263 -1
-195 -17 -261 -113 -455 -197 -397 -394 -598 -961 -981 -432 -292 -1179 -699
-1610 -877 -462 -191 -620 -229 -960 -230 -214 -1 -314 10 -435 45 -281 81
-547 336 -725 697 -168 338 -206 616 -119 875 57 171 226 460 359 615 166 192
582 493 1077 779 633 367 944 525 1353 690 263 105 424 153 586 171 103 12
351 12 462 1z"/>
<path d="M11900 50466 c-24 -65 -23 -74 9 -90 83 -43 148 -131 158 -213 13
-111 -23 -186 -238 -510 -286 -431 -411 -712 -492 -1113 -41 -200 -50 -312
-44 -544 6 -245 28 -371 103 -596 165 -496 540 -975 1029 -1312 405 -280 962
-485 1521 -559 188 -25 546 -30 714 -10 493 58 931 220 1256 464 456 342 761
899 871 1589 25 155 22 449 -5 600 -103 564 -448 1011 -999 1291 -71 36 -156
76 -190 90 l-61 25 -31 -75 -30 -74 47 -21 c132 -58 178 -81 278 -138 470
-269 764 -658 839 -1109 25 -150 16 -419 -19 -588 -108 -510 -339 -839 -718
-1018 -191 -90 -356 -118 -708 -118 -501 -1 -832 58 -1585 279 -563 166 -769
242 -1100 404 -306 150 -607 360 -740 515 -288 338 -344 745 -174 1257 80 242
188 426 334 572 171 171 379 272 690 336 272 56 666 66 1002 24 l51 -6 21 68
c11 37 19 69 18 70 -1 1 -148 45 -327 98 -179 54 -435 130 -570 171 -680 205
-857 258 -877 262 -17 4 -25 -1 -33 -21z"/>
<path d="M68403 49197 c-24 -5 -43 -13 -43 -16 0 -3 36 -145 80 -316 43 -170
78 -310 77 -311 -1 -1 -112 -30 -247 -64 -1599 -404 -3865 -978 -4164 -1054
-208 -54 -384 -95 -390 -93 -6 3 -46 144 -90 315 l-79 310 -61 -17 c-33 -10
-60 -22 -59 -29 6 -25 222 -884 353 -1397 77 -302 156 -614 176 -692 20 -79
42 -143 48 -143 27 1 111 28 110 36 -1 5 -41 165 -89 357 -49 191 -86 349 -84
351 2 1 94 26 204 53 110 28 575 146 1034 262 458 117 834 211 836 209 1 -2
30 -115 64 -253 168 -680 257 -948 423 -1278 382 -762 963 -1074 1698 -910
611 135 921 443 1001 993 19 126 16 514 -5 692 -40 352 -53 407 -413 1836
-276 1091 -298 1172 -317 1171 -12 -1 -40 -6 -63 -12z m421 -1854 c110 -445
120 -511 121 -778 0 -244 -10 -314 -65 -452 -129 -323 -478 -540 -1055 -657
-431 -88 -774 -48 -1025 119 -80 53 -209 185 -268 275 -57 86 -152 282 -192
395 -29 83 -189 685 -193 729 -2 18 116 50 1288 347 710 180 1295 328 1301
328 7 1 43 -123 88 -306z"/>
<path d="M10175 43321 c-3 -2 -5 -25 -5 -51 l0 -47 58 -22 c88 -32 135 -70
168 -138 24 -49 29 -70 28 -133 -1 -81 -11 -118 -167 -575 -120 -351 -156
-539 -164 -865 -8 -325 25 -567 113 -830 109 -325 275 -590 526 -840 410 -409
956 -687 1548 -789 246 -42 298 -46 650 -45 301 0 363 3 487 22 429 65 780
188 1132 397 562 333 906 814 1025 1434 40 204 50 313 50 546 1 467 -92 813
-305 1130 -272 405 -700 671 -1237 770 -178 33 -168 34 -176 -22 -4 -27 -9
-62 -12 -80 -6 -31 -5 -32 43 -38 424 -60 806 -234 1070 -488 222 -214 343
-437 409 -751 32 -154 43 -410 24 -577 -58 -537 -343 -900 -841 -1074 -269
-94 -600 -158 -948 -185 -331 -25 -1197 0 -1606 46 -631 71 -1153 249 -1428
487 -184 159 -309 404 -353 692 -20 126 -14 447 10 578 53 284 155 488 330
663 261 261 745 460 1318 542 l123 17 3 73 c2 39 0 72 -4 72 -11 0 -1735 79
-1802 83 -34 1 -65 1 -67 -2z"/>
<path d="M69770 41735 l0 -325 -182 0 c-101 0 -1198 -7 -2438 -15 -1240 -8
-2274 -15 -2297 -15 l-43 0 0 325 0 325 -65 0 -65 0 0 -367 c0 -417 21 -3777
24 -3780 1 -2 1729 -70 1891 -75 l70 -2 3 71 3 70 -178 11 c-404 27 -714 72
-883 128 -173 57 -316 149 -448 288 -226 238 -298 489 -332 1156 -8 168 -15
919 -7 920 8 2 4405 29 4655 30 l302 0 0 -415 0 -415 67 0 66 0 -6 857 c-4
471 -7 1013 -7 1205 l0 348 -65 0 -65 0 0 -325z"/>
<path d="M10273 36478 c-29 -6 -43 -14 -43 -26 0 -17 69 -337 170 -792 33
-146 129 -582 215 -969 85 -388 158 -707 161 -710 4 -5 113 15 120 21 1 2 -8
53 -21 113 -57 268 -70 555 -30 714 47 193 184 343 407 445 112 52 277 100
573 165 926 206 1598 353 1715 375 819 154 1401 128 1761 -77 159 -91 315
-244 412 -405 84 -138 171 -384 212 -593 64 -331 -6 -724 -169 -953 -92 -129
-276 -281 -481 -399 -251 -144 -788 -303 -1695 -502 -434 -95 -1156 -255
-1810 -400 -347 -77 -507 -109 -511 -101 -4 6 -39 163 -80 348 -40 186 -76
343 -80 350 -6 9 -21 9 -67 -3 l-60 -14 103 -460 c56 -253 169 -761 250 -1130
81 -368 148 -671 149 -672 3 -3 116 24 121 28 2 3 -28 145 -66 318 -38 172
-68 315 -67 316 2 1 253 57 558 124 305 68 776 172 1045 231 270 60 614 136
765 169 483 107 771 191 1045 308 244 103 460 224 641 358 126 93 330 304 407
421 271 409 339 925 207 1589 -91 459 -257 796 -514 1043 -185 177 -398 279
-731 349 -165 34 -482 42 -732 19 -452 -43 -655 -82 -2140 -412 -260 -57 -517
-111 -570 -119 -129 -20 -333 -19 -431 0 -264 54 -430 231 -565 605 -24 69
-57 173 -72 233 -30 116 -26 112 -102 95z"/>
<path d="M64511 36114 c-5 -22 -71 -289 -146 -594 -75 -305 -237 -964 -360
-1465 -123 -500 -294 -1195 -379 -1543 -86 -348 -156 -636 -156 -640 0 -5 39
-20 88 -34 118 -35 777 -229 1097 -323 143 -42 358 -106 478 -141 121 -36 220
-64 222 -62 5 5 36 130 33 133 -2 2 -111 39 -243 83 -389 129 -637 235 -780
332 -210 143 -354 346 -421 595 -26 93 -28 114 -28 305 0 232 13 339 89 715
39 193 257 1100 266 1110 4 3 132 -27 1529 -372 503 -123 917 -227 920 -230 7
-7 -134 -563 -175 -688 -103 -314 -258 -529 -440 -610 -57 -26 -170 -51 -265
-60 -80 -7 -273 10 -399 36 -51 10 -99 19 -106 19 -15 0 -50 -129 -38 -140 4
-5 269 -72 588 -149 319 -78 796 -195 1060 -260 264 -66 481 -118 483 -116 2
2 12 35 22 74 l18 71 -42 10 c-108 27 -246 77 -344 126 -232 115 -341 234
-394 432 -31 117 -29 358 5 552 26 146 149 655 161 667 3 4 441 -101 974 -231
1344 -331 1257 -308 1254 -327 -6 -42 -197 -811 -237 -957 -184 -670 -396
-1055 -650 -1177 -112 -54 -217 -76 -400 -82 -191 -6 -365 11 -624 63 -96 19
-178 36 -184 37 -14 3 -43 -121 -31 -132 5 -5 362 -95 794 -201 432 -105 792
-194 800 -196 16 -4 17 -1 355 1376 97 393 205 832 240 975 35 143 132 537
215 875 83 338 168 687 190 774 22 88 39 161 37 162 -1 1 -28 9 -60 17 -43 12
-59 12 -63 4 -2 -7 -37 -146 -78 -310 -40 -164 -75 -300 -78 -302 -5 -6 -130
24 -1413 340 -1533 377 -2805 690 -3112 765 -161 40 -293 72 -293 73 0 1 36
143 79 315 l79 313 -25 10 c-13 5 -42 12 -63 15 -38 6 -39 6 -49 -32z"/>
<path d="M21490 32650 c0 -5 5 -10 11 -10 5 0 7 5 4 10 -3 6 -8 10 -11 10 -2
0 -4 -4 -4 -10z"/>
<path d="M58540 32650 c0 -5 5 -10 11 -10 5 0 7 5 4 10 -3 6 -8 10 -11 10 -2
0 -4 -4 -4 -10z"/>
<path d="M16412 29960 c-307 -39 -634 -195 -841 -402 -160 -160 -263 -351
-332 -614 -51 -195 -61 -267 -66 -489 -6 -230 3 -341 76 -1015 50 -452 54
-531 41 -717 -37 -527 -181 -800 -512 -973 -179 -94 -318 -127 -486 -117 -125
7 -194 26 -317 86 -120 58 -198 115 -291 213 -174 183 -330 494 -396 790 -20
89 -23 130 -23 298 0 179 3 204 28 303 75 299 248 592 506 861 79 82 254 239
309 278 l23 16 -30 61 c-17 34 -36 61 -42 61 -5 0 -261 -128 -567 -284 -306
-156 -654 -332 -772 -391 -118 -59 -216 -108 -218 -110 -2 -1 7 -24 20 -49
l22 -47 41 8 c22 4 67 8 100 8 104 -1 196 -68 244 -177 26 -57 49 -150 120
-484 96 -444 167 -668 296 -929 117 -237 242 -419 395 -579 203 -211 433 -349
690 -414 94 -24 124 -27 280 -27 249 0 400 37 645 155 421 204 637 497 740
1003 42 208 52 397 31 642 -21 256 -58 620 -88 855 -33 255 -33 648 0 835 57
323 181 533 402 682 210 141 407 200 640 190 268 -11 479 -106 681 -307 144
-143 240 -289 342 -523 250 -566 234 -1064 -49 -1545 -156 -263 -390 -507
-753 -782 l-33 -26 31 -62 32 -63 52 29 c203 115 785 444 937 530 102 57 289
163 415 234 127 72 247 140 267 152 21 11 38 25 38 29 0 4 -9 26 -20 47 -20
40 -21 40 -63 33 -74 -14 -159 -7 -203 15 -47 24 -105 85 -132 139 -26 50 -63
203 -107 443 -101 545 -221 867 -459 1230 -303 462 -749 785 -1219 881 -114
23 -319 32 -425 19z"/>
<path d="M25030 28866 c0 -15 4 -25 9 -22 10 7 9 31 -2 42 -4 4 -7 -5 -7 -20z"/>
<path d="M55003 28874 c-3 -8 -1 -20 6 -27 8 -8 11 -4 11 16 0 30 -7 35 -17
11z"/>
<path d="M25000 28720 c0 -19 3 -21 12 -12 9 9 9 15 0 24 -9 9 -12 7 -12 -12z"/>
<path d="M55030 28715 c0 -8 5 -15 10 -15 6 0 10 7 10 15 0 8 -4 15 -10 15 -5
0 -10 -7 -10 -15z"/>
<path d="M24980 28449 c0 -5 5 -7 10 -4 6 3 10 8 10 11 0 2 -4 4 -10 4 -5 0
-10 -5 -10 -11z"/>
<path d="M55050 28450 c0 -5 5 -10 10 -10 6 0 10 5 10 10 0 6 -4 10 -10 10 -5
0 -10 -4 -10 -10z"/>
<path d="M25000 28219 c0 -18 3 -29 7 -25 11 11 13 45 3 51 -6 4 -10 -7 -10
-26z"/>
<path d="M55030 28215 c0 -14 5 -25 10 -25 6 0 10 11 10 25 0 14 -4 25 -10 25
-5 0 -10 -11 -10 -25z"/>
<path d="M25030 28100 c0 -19 3 -21 12 -12 9 9 9 15 0 24 -9 9 -12 7 -12 -12z"/>
<path d="M55000 28101 c0 -6 5 -13 10 -16 6 -3 10 1 10 9 0 9 -4 16 -10 16 -5
0 -10 -4 -10 -9z"/>
<path d="M25390 27570 c0 -5 18 -10 40 -10 22 0 40 5 40 10 0 6 -18 10 -40 10
-22 0 -40 -4 -40 -10z"/>
<path d="M54580 27570 c0 -5 18 -10 40 -10 22 0 40 5 40 10 0 6 -18 10 -40 10
-22 0 -40 -4 -40 -10z"/>
<path d="M61554 26529 c-270 -20 -497 -81 -732 -194 -239 -116 -403 -236 -612
-452 -334 -343 -580 -779 -660 -1175 -127 -621 106 -1259 627 -1724 l98 -87
52 59 c29 33 52 62 50 65 -1 3 -42 41 -91 85 -49 43 -131 128 -184 189 -218
253 -354 519 -418 815 -26 119 -26 400 -1 520 71 332 273 692 524 931 228 218
486 321 803 322 163 1 254 -13 445 -69 420 -122 814 -313 1255 -607 213 -143
665 -462 779 -551 547 -426 930 -897 1028 -1261 23 -88 26 -119 27 -260 0
-134 -3 -175 -22 -249 -106 -421 -451 -862 -807 -1031 -181 -86 -311 -110
-555 -102 -235 8 -400 37 -663 118 -115 35 -333 119 -449 172 l-78 36 -24 -32
c-13 -18 -31 -44 -40 -59 l-17 -26 133 -94 c73 -52 286 -202 473 -333 187
-131 467 -328 622 -437 156 -109 289 -201 297 -204 13 -5 66 52 66 71 0 4 -13
24 -29 44 -81 103 -96 199 -48 304 37 81 81 122 487 442 156 123 380 347 483
482 157 206 284 430 374 661 160 409 185 859 73 1297 -201 786 -691 1415
-1468 1883 -570 344 -1186 499 -1798 451z"/>
<path d="M54300 26416 c0 -9 5 -16 10 -16 6 0 10 4 10 9 0 6 -4 13 -10 16 -5
3 -10 -1 -10 -9z"/>
<path d="M25730 26410 c0 -5 5 -10 10 -10 6 0 10 5 10 10 0 6 -4 10 -10 10 -5
0 -10 -4 -10 -10z"/>
<path d="M25765 25811 c-3 -5 -1 -12 5 -16 5 -3 10 1 10 9 0 18 -6 21 -15 7z"/>
<path d="M54270 25804 c0 -8 5 -12 10 -9 6 4 8 11 5 16 -9 14 -15 11 -15 -7z"/>
<path d="M21145 22599 c-341 -335 -657 -647 -703 -692 l-83 -83 55 -46 54 -47
113 106 c375 351 642 554 822 624 159 61 218 72 387 72 137 0 167 -3 254 -26
228 -61 449 -197 811 -501 230 -193 890 -803 890 -822 0 -7 -384 -427 -854
-934 l-854 -921 -46 44 c-25 24 -122 115 -216 202 -193 179 -302 295 -387 408
-198 267 -235 484 -127 743 38 92 160 277 253 384 l65 75 -52 52 c-49 51 -52
52 -70 35 -32 -28 -1482 -1593 -1483 -1600 -1 -4 22 -29 52 -56 l54 -49 113
109 c227 218 414 314 612 314 94 0 169 -17 278 -65 173 -74 326 -189 651 -490
l215 -198 -47 -52 c-364 -397 -1517 -1635 -1522 -1633 -15 6 -679 628 -794
743 -270 270 -463 519 -561 720 -67 137 -85 207 -85 327 0 259 154 556 493
952 59 69 107 128 106 133 -1 4 -23 27 -49 51 l-48 43 -558 -602 c-308 -331
-562 -608 -566 -615 -5 -8 58 -73 180 -186 103 -95 372 -345 597 -554 612
-568 1646 -1526 2023 -1877 l334 -310 44 44 c24 24 44 46 44 49 -1 3 -106 102
-235 220 -129 118 -233 220 -232 226 1 6 400 440 887 965 1379 1486 1515 1632
2010 2167 255 276 467 502 470 501 3 0 111 -99 240 -219 l235 -219 23 22 c13
12 33 34 43 49 l19 26 -402 374 c-222 206 -621 576 -888 823 -267 247 -575
533 -685 635 -110 102 -420 390 -690 639 -269 250 -508 471 -530 492 l-40 38
-620 -610z"/>
<path d="M57505 22373 c-143 -124 -489 -427 -770 -672 -280 -245 -627 -547
-770 -672 -143 -124 -496 -432 -785 -684 -289 -252 -527 -459 -529 -461 -2 -2
82 -110 185 -241 166 -208 939 -1180 1012 -1272 l27 -34 53 49 53 49 -92 120
c-214 281 -387 546 -470 720 -144 301 -140 652 10 940 118 228 388 511 973
1023 142 125 262 228 266 229 4 1 82 -85 173 -190 91 -106 444 -511 785 -902
341 -390 959 -1099 1374 -1575 415 -476 794 -910 842 -965 77 -87 85 -101 73
-115 -8 -8 -147 -130 -309 -270 -162 -140 -295 -258 -295 -262 -1 -3 18 -27
42 -51 l42 -46 795 695 c437 382 843 736 902 787 59 51 107 97 107 102 0 6
-18 30 -39 54 l-40 43 -236 -207 c-130 -114 -242 -208 -249 -209 -8 0 -191
202 -407 450 -437 501 -1135 1300 -2172 2488 -658 754 -688 790 -669 805 10 9
121 105 246 214 l227 198 -37 44 c-21 25 -43 44 -48 45 -6 0 -127 -102 -270
-227z"/>
<path d="M26370 19070 l-30 -59 323 -162 c177 -88 325 -164 330 -168 4 -4 -75
-171 -176 -372 -803 -1594 -1039 -2062 -1507 -2994 -293 -583 -535 -1062 -537
-1064 -2 -3 -152 71 -333 163 l-329 167 -30 -58 -29 -59 1031 -519 c568 -286
1034 -519 1037 -519 7 1 63 105 58 109 -1 1 -133 69 -291 150 l-288 147 59
112 c33 61 229 451 437 866 208 415 418 832 467 926 l88 171 1087 -547 c598
-301 1089 -553 1091 -559 3 -8 -1018 -2052 -1034 -2070 -2 -2 -152 71 -334
162 l-330 167 -25 -50 c-14 -27 -25 -54 -25 -59 0 -10 465 -248 1455 -745
l610 -305 27 52 c15 29 27 55 28 58 0 3 -130 72 -288 152 l-289 147 444 882
c244 486 648 1288 898 1783 249 495 550 1095 669 1332 l217 433 290 -146 c160
-80 292 -144 294 -142 8 9 56 110 53 113 -12 9 -2057 1035 -2065 1035 -10 0
-53 -83 -53 -103 0 -7 144 -84 321 -172 176 -88 323 -163 325 -167 2 -4 -248
-509 -558 -1122 l-562 -1115 -1085 546 c-597 300 -1090 549 -1095 553 -9 9
1112 2243 1123 2238 4 -2 134 -68 290 -146 155 -79 284 -142 286 -140 8 9 56
110 53 113 -2 1 -457 231 -1013 510 -555 279 -1020 514 -1032 521 -22 14 -24
12 -53 -46z"/>
<path d="M51580 18080 c-200 -28 -387 -79 -610 -167 -388 -153 -653 -315 -865
-529 -287 -288 -404 -581 -405 -1004 0 -234 27 -401 110 -669 136 -440 309
-820 1057 -2326 199 -401 253 -566 253 -771 0 -55 -7 -122 -16 -157 -58 -225
-249 -414 -631 -626 l-113 -63 26 -51 c15 -29 27 -53 29 -55 1 -1 26 9 56 22
71 31 2221 1094 2228 1101 3 3 -7 30 -22 60 l-27 55 -77 -37 c-157 -73 -350
-146 -463 -175 -155 -41 -328 -45 -435 -11 -144 46 -290 172 -417 362 -67 100
-251 463 -793 1566 -254 518 -326 682 -429 984 -162 472 -204 850 -130 1151
43 169 169 386 304 519 173 171 473 346 715 416 259 75 573 74 764 -2 197 -77
436 -270 604 -485 219 -281 411 -630 972 -1768 772 -1564 875 -1773 875 -1779
0 -3 -149 -79 -330 -168 l-330 -162 27 -56 c15 -30 33 -54 39 -53 7 2 476 232
1042 512 l1031 509 -30 59 -29 58 -291 -146 c-160 -80 -292 -144 -293 -142 -2
2 -94 190 -206 418 -588 1200 -1093 2205 -1184 2354 -376 619 -808 1026 -1259
1185 -161 57 -261 72 -482 76 -110 2 -229 0 -265 -5z"/>
<path d="M46515 15975 c-187 -35 -590 -109 -895 -164 -644 -118 -937 -173
-1070 -202 -406 -87 -805 -221 -1070 -360 -690 -363 -976 -876 -864 -1549 73
-433 298 -724 674 -871 134 -53 300 -95 454 -115 146 -19 564 -14 716 10 95
15 110 12 110 -19 0 -5 -82 -36 -182 -69 -295 -95 -547 -233 -746 -406 -279
-244 -397 -538 -364 -907 24 -272 102 -468 244 -619 108 -113 201 -171 373
-230 279 -97 829 -102 1450 -13 191 27 463 74 950 164 226 42 658 121 960 176
303 55 553 103 557 107 7 9 -13 122 -22 122 -4 0 -141 -25 -306 -55 -164 -30
-306 -55 -315 -55 -12 0 -23 40 -52 198 -19 108 -95 519 -167 912 -72 393
-178 969 -235 1280 -229 1249 -347 1890 -400 2179 -31 167 -55 305 -53 306 2
1 145 28 318 60 173 31 316 58 317 59 8 8 -21 126 -31 125 -6 0 -164 -29 -351
-64z m-1116 -635 c27 -151 109 -597 181 -990 72 -393 155 -848 185 -1010 30
-162 52 -296 50 -299 -8 -7 -298 -59 -450 -80 -543 -77 -989 -39 -1255 106
-272 148 -437 423 -521 868 -26 140 -37 428 -20 544 34 231 118 416 260 573
169 187 523 367 897 458 138 33 608 118 616 111 3 -3 29 -130 57 -281z m484
-2641 c20 -112 82 -449 137 -749 55 -300 127 -691 160 -869 33 -179 57 -328
53 -331 -8 -7 -203 -44 -443 -85 -220 -37 -370 -48 -587 -42 -247 7 -354 28
-499 98 -218 107 -366 347 -441 717 -27 134 -24 439 5 546 103 375 427 638
985 801 130 38 557 127 582 121 5 -2 27 -94 48 -207z"/>
<path d="M33970 15874 c-7 -31 -8 -59 -3 -64 4 -4 162 -38 350 -75 188 -38
347 -71 353 -75 8 -5 -90 -513 -340 -1751 -193 -959 -413 -2051 -488 -2427
l-137 -684 -40 7 c-73 11 -289 66 -400 102 -443 142 -734 331 -837 545 -135
278 -158 601 -87 1218 11 96 21 184 22 194 2 16 -9 22 -62 33 -36 7 -68 10
-72 6 -3 -5 -41 -235 -82 -513 -42 -278 -106 -698 -143 -933 -36 -236 -63
-431 -60 -434 3 -3 394 -84 868 -179 475 -96 1458 -293 2186 -440 727 -147
1325 -264 1328 -261 10 9 464 1831 460 1843 -3 8 -127 38 -131 31 -1 -1 -25
-83 -53 -182 -144 -505 -268 -788 -430 -983 -148 -179 -279 -250 -542 -299
-127 -23 -472 -23 -650 0 -158 21 -351 54 -359 62 -3 4 82 439 188 968 311
1542 594 2947 692 3437 50 250 92 456 93 457 0 0 143 -28 316 -62 173 -35 318
-61 321 -57 11 12 27 112 18 117 -9 6 -2236 455 -2255 455 -7 0 -17 -23 -24
-56z"/>
</g>
</svg>
